<svg xmlns="http://www.w3.org/2000/svg" viewBox="0 0 311.42 363.91"><defs><style>.cls-1{fill:none;stroke:#0375a8;stroke-miterlimit:10;stroke-width:8.72px;}.cls-2{fill:#f05455;}.cls-3{fill:#0375a8;}.cls-4{fill:#fff;}</style></defs><g id="Layer_2" data-name="Layer 2"><g id="Layer_1-2" data-name="Layer 1"><path class="cls-1" d="M149.27,355.87c-8.29-4.1-16.94-7.4-26.1-10.89C90,332.36,52.49,318.06,24.23,260.9,3.69,219.34,11,188.4,17.4,161.1c5.81-24.66,10.4-44.14-5.66-69.86L5.55,81.33,58.62,29.45l8.56,3.08a99.48,99.48,0,0,0,32.76,5.86c19,0,34.08-6.31,44.73-18.76l11-12.92,11,12.92c10.65,12.45,25.7,18.76,44.73,18.76a99.48,99.48,0,0,0,32.76-5.86l8.56-3.08,53.07,51.88-6.19,9.91C283.62,117,288.2,136.44,294,161.1c6.43,27.3,13.72,58.24-6.82,99.8-28.26,57.16-65.81,71.46-98.94,84.08-9.16,3.49-17.81,6.79-26.1,10.89l-6.44,3.18Z"/><path class="cls-2" d="M194.45,327c11.9-4.74,23.8-10.18,35.29-18.24V140.25H194.45Z"/><path class="cls-2" d="M81.6,308.7C93.08,316.77,105,322.22,116.89,327V140.25H81.6Z"/><path class="cls-2" d="M250.87,289.89c8.23-9.27,16.06-20.79,23.3-35.43,23.95-48.45,5.33-80.39.85-114.21H250.87Z"/><path class="cls-2" d="M60.46,140.25H36.4c-4.48,33.82-23.1,65.76.85,114.21,7.22,14.59,15,26.08,23.21,35.33Z"/><path class="cls-2" d="M173.31,335.18V140.25H138V335.14c6,2.36,11.9,4.84,17.69,7.7C161.48,340,167.36,337.52,173.31,335.18Z"/><path class="cls-3" d="M36.4,140.25H275c-2.32-17.54-.85-35.58,12.34-56.7L249.15,46.2c-25.5,9.18-67.37,13.36-93.44-17.14C129.64,59.56,87.77,55.38,62.26,46.2L24.06,83.55C37.25,104.67,38.72,122.71,36.4,140.25Z"/><path class="cls-4" d="M229.79,76.59,228.18,67c-.51-3.1-1.72-5.64-2.68-5.64s-1.74,2.57-1.74,5.71v2.53a5.73,5.73,0,0,1-5.71,5.71H215v6.94l.54,0H225a4.69,4.69,0,0,0,4.77-5.64"/><path class="cls-4" d="M207,68.43h-15.4l-.37,0H175.46a4.9,4.9,0,0,0-.54,0V67c0-3.14-.78-5.7-1.74-5.7S171,63.85,170.5,67l-1.61,9.64a4.69,4.69,0,0,0,4.77,5.64h9.49a8.9,8.9,0,0,0,2.71-.42,3.49,3.49,0,0,1-3.43,2.84H169.12a3.49,3.49,0,0,1-3.44-4.06L167,72.51a3.48,3.48,0,0,0-3.44-4.06H97.35a3.49,3.49,0,0,0-3.18,2l-12.47,19a.86.86,0,0,0,.06,1l2.42,2.86a.86.86,0,0,0,1.2.12l8.48-6.69v40.61a3.48,3.48,0,0,0,3.49,3.48h18.8a3.48,3.48,0,0,0,3.49-3.48V113.28a3.48,3.48,0,0,1,3.48-3.48h46.95a3.48,3.48,0,0,1,3.49,3.48v14.13a3.48,3.48,0,0,0,3.49,3.48h18.8a3.48,3.48,0,0,0,3.49-3.48v-15.2h-10a5.73,5.73,0,0,1-5.71-5.71V96.73a5.72,5.72,0,0,1,2.29-4.56v11.66a5.73,5.73,0,0,0,5.71,5.71H207a5.72,5.72,0,0,0,5.7-5.71V74.14a5.72,5.72,0,0,0-5.7-5.71"/></g></g></svg>