<?xml version="1.0" encoding="UTF-8" standalone="no"?>
<!-- Created with Inkscape (http://www.inkscape.org/) -->

<svg
   width="303.13171mm"
   height="24.870834mm"
   viewBox="0 0 303.13171 24.870834"
   version="1.1"
   id="svg37080"
   inkscape:export-filename="rancher-carbide-long-light.svg"
   inkscape:export-xdpi="96"
   inkscape:export-ydpi="96"
   inkscape:version="1.2.2 (b0a84865, 2022-12-01)"
   sodipodi:docname="carbide_combined_light.svg"
   xmlns:inkscape="http://www.inkscape.org/namespaces/inkscape"
   xmlns:sodipodi="http://sodipodi.sourceforge.net/DTD/sodipodi-0.dtd"
   xmlns="http://www.w3.org/2000/svg"
   xmlns:svg="http://www.w3.org/2000/svg">
  <sodipodi:namedview
     id="namedview37082"
     pagecolor="#ffffff"
     bordercolor="#000000"
     borderopacity="0.25"
     inkscape:showpageshadow="2"
     inkscape:pageopacity="0.0"
     inkscape:pagecheckerboard="0"
     inkscape:deskcolor="#d1d1d1"
     inkscape:document-units="mm"
     showgrid="false"
     inkscape:zoom="0.71574804"
     inkscape:cx="827.80527"
     inkscape:cy="132.0297"
     inkscape:window-width="2098"
     inkscape:window-height="1387"
     inkscape:window-x="0"
     inkscape:window-y="25"
     inkscape:window-maximized="0"
     inkscape:current-layer="layer1" />
  <defs
     id="defs37077">
    <rect
       x="71.254128"
       y="48.899891"
       width="1286.7657"
       height="681.8042"
       id="rect39717" />
  </defs>
  <g
     inkscape:label="Layer 1"
     inkscape:groupmode="layer"
     id="layer1"
     transform="translate(106.08949,-142.08737)">
    <g
       id="g36321"
       transform="matrix(0.26458333,0,0,0.26458333,-106.29749,142.08737)">
      <g
         id="g36297">
        <path
           class="st0"
           d="m 200.7,20.6 -2.2,-13 C 197.8,3.4 196.2,0 194.9,0 c -1.3,0 -2.4,3.5 -2.4,7.7 v 3.4 c 0,4.2 -3.5,7.7 -7.7,7.7 h -3.4 c -0.2,0 -0.5,0 -0.7,0 v 9.4 c 0.2,0 0.5,0 0.7,0 h 12.8 c 4.3,0 7.2,-3.4 6.5,-7.6"
           id="path36293"
           style="fill:#0075a8" />
        <path
           class="st0"
           d="m 170,9.6 h -20.8 c -0.2,0 -0.3,0 -0.5,0 h -21.3 c -0.3,0 -0.5,0 -0.7,0.1 v -2 c 0,-4.2 -1.1,-7.7 -2.4,-7.7 -1.3,0 -2.9,3.4 -3.6,7.6 l -2.2,13 c -0.7,4.2 2.2,7.6 6.4,7.6 h 12.8 c 1.3,0 2.6,-0.2 3.6,-0.6 -0.4,2.2 -2.3,3.8 -4.6,3.8 h -18 c -2.9,0 -5.1,-2.6 -4.6,-5.5 L 115.9,15 c 0.5,-2.9 -1.7,-5.5 -4.6,-5.5 H 22.1 c -1.9,0 -3.5,1.1 -4.3,2.8 L 1,38 c -0.3,0.4 -0.3,1 0.1,1.4 l 3.3,3.9 c 0.4,0.5 1.1,0.6 1.6,0.2 l 11.4,-9 v 54.8 c 0,2.6 2.1,4.7 4.7,4.7 h 25.4 c 2.6,0 4.7,-2.1 4.7,-4.7 v -19 c 0,-2.6 2.1,-4.7 4.7,-4.7 h 63.3 c 2.6,0 4.7,2.1 4.7,4.7 v 19 c 0,2.6 2.1,4.7 4.7,4.7 H 155 c 2.6,0 4.7,-2.1 4.7,-4.7 V 68.6 h -13.5 c -4.2,0 -7.7,-3.5 -7.7,-7.7 V 47.8 c 0,-2.5 1.2,-4.7 3.1,-6.1 v 15.7 c 0,4.2 3.5,7.7 7.7,7.7 H 170 c 4.2,0 7.7,-3.5 7.7,-7.7 v -40 c 0,-4.3 -3.5,-7.8 -7.7,-7.8"
           id="path36295"
           style="fill:#0075a8" />
      </g>
      <g
         id="g36319">
        <g
           id="g36313">
          <path
             class="st1"
             d="m 217.7,12.2 h 28.6 c 13.6,0 22.7,6.6 22.7,19.3 0,10.4 -7.1,16.6 -14,18.8 2.1,1.7 3.6,4.1 4.8,6.6 2.9,5.9 4.8,12.3 10.9,12.3 1.5,0 2.8,-0.5 2.8,-0.5 L 272.1,81 c 0,0 -3.7,0.9 -6.9,0.9 -8.2,0 -12.9,-3.2 -17.8,-14.2 -2.1,-4.9 -4.9,-13.6 -8.7,-13.6 h -3.9 V 81.5 H 217.6 V 12.2 Z m 17.2,12.5 v 17 h 6.2 c 4.9,0 10.7,-1.5 10.7,-8.9 0,-6.1 -3.9,-8.1 -8.6,-8.1 z"
             id="path36299"
             style="fill:#59595b" />
          <path
             class="st1"
             d="m 292.2,12.2 h 17.4 L 333,81.5 h -17.4 l -4.3,-13.1 h -23.2 l -4.2,13.1 h -15 z m 0,43.5 h 14.9 L 302.4,41.1 C 300.8,36.2 300,29.2 300,29.2 h -0.4 c 0,0 -1,7.1 -2.6,11.8 z"
             id="path36301"
             style="fill:#59595b" />
          <path
             class="st1"
             d="M 333.6,12.2 H 352 l 18.2,34.4 c 1.5,3 3.6,8.2 5.2,12.3 h 0.4 C 375.6,55 375.1,49.5 375.1,45.4 V 12.2 h 14.1 v 69.3 h -18 L 352.3,47.2 c -1.7,-3.1 -3.6,-7.6 -5,-11.3 h -0.4 c 0.3,3.9 0.8,8.5 0.8,12.3 v 33.3 h -14.1 z"
             id="path36303"
             style="fill:#59595b" />
          <path
             class="st1"
             d="m 392.9,46.5 c 0,-25.1 12.4,-35.4 31.6,-35.4 20.2,0 28.3,11.1 26.1,26.1 l -16,1.4 c 1.7,-11 -2.6,-15.4 -10.4,-15.4 -7.5,0 -13.6,5.5 -13.6,23.4 0,18.9 6.6,23.7 14.1,23.7 7.1,0 12.8,-4.4 11.6,-13.5 l 15,1.5 c 1.1,14.1 -9,24.4 -27.5,24.4 -18.8,0.1 -30.9,-11 -30.9,-36.2"
             id="path36305"
             style="fill:#59595b" />
          <polygon
             class="st1"
             points="472,38.4 493,38.4 493,12.2 510.2,12.2 510.2,81.6 493,81.6 493,52.2 472,52.2 472,81.6 454.8,81.6 454.8,12.2 472,12.2 "
             id="polygon36307"
             style="fill:#59595b" />
          <polygon
             class="st1"
             points="563,25 534.2,25 534.2,39.9 558.3,39.9 558.3,52.6 534.2,52.6 534.2,68.8 564,68.8 564,81.6 517.1,81.6 517.1,12.2 563,12.2 "
             id="polygon36309"
             style="fill:#59595b" />
          <path
             class="st1"
             d="m 567.3,12.2 h 28.6 c 13.6,0 22.7,6.6 22.7,19.3 0,10.4 -7.1,16.6 -14,18.8 2.1,1.7 3.6,4.1 4.8,6.6 2.9,5.9 4.8,12.3 10.9,12.3 1.5,0 2.8,-0.5 2.8,-0.5 L 621.7,81 c 0,0 -3.7,0.9 -6.9,0.9 -8.2,0 -12.9,-3.2 -17.8,-14.2 -2.1,-4.9 -4.9,-13.6 -8.7,-13.6 h -3.9 V 81.5 H 567.2 V 12.2 Z m 17.1,12.5 v 17 h 6.2 c 4.9,0 10.7,-1.5 10.7,-8.9 0,-6.1 -3.9,-8.1 -8.6,-8.1 z"
             id="path36311"
             style="fill:#59595b" />
        </g>
        <g
           id="g36317">
          <path
             class="st1"
             d="m 625.2,16.6 c 0,-3.9 2.9,-5.6 5.6,-5.6 2.7,0 5.6,1.7 5.6,5.6 0,3.8 -2.9,5.5 -5.6,5.5 -2.6,0.1 -5.6,-1.6 -5.6,-5.5 z m 9.9,0 c 0,-3.1 -2,-4.4 -4.2,-4.4 -2.2,0 -4.3,1.3 -4.3,4.4 0,3 2.1,4.4 4.3,4.4 2.2,0 4.2,-1.3 4.2,-4.4 z M 629,13.8 h 2 c 1,0 2,0.3 2,1.7 0,0.8 -0.6,1.3 -1.3,1.5 l 1.3,2.3 h -1.2 l -1.2,-2.2 h -0.5 v 2.2 H 629 Z m 2.1,2.5 c 0.5,0 0.9,-0.3 0.9,-0.8 0,-0.6 -0.5,-0.7 -0.9,-0.7 h -1 v 1.5 z"
             id="path36315"
             style="fill:#59595b" />
        </g>
      </g>
    </g>
    <g
       aria-label="CARBIDE"
       transform="matrix(0.15375533,0,0,0.15523457,52.090807,131.52251)"
       id="text39715"
       style="font-size:192px;font-family:Nasalization;-inkscape-font-specification:Nasalization;white-space:pre;shape-inside:url(#rect39717);opacity:0.738462">
      <path
         d="m 140.75791,83.996747 c -37.632,0 -58.560004,21.312003 -58.560004,64.896003 0,43.392 20.736004,64.704 58.560004,64.704 h 50.112 v -22.656 h -50.112 c -25.152,0 -35.904,-12.48 -35.904,-42.048 0,-29.76 10.944,-42.24 35.904,-42.24 h 50.112 V 83.996747 Z"
         id="path40229" />
      <path
         d="m 271.89375,109.34075 c 1.344,-3.072 3.456,-4.416 6.528,-4.416 3.072,0 5.184,1.344 6.336,4.416 l 39.36,104.256 h 25.152 l -43.776,-115.200003 c -4.608,-12.096 -13.44,-16.704 -26.88,-16.704 -13.632,0 -22.464,4.608 -27.264,16.704 l -45.504,115.200003 h 24.96 z"
         style="fill:#b43434"
         id="path40231" />
      <path
         d="m 368.08546,83.996747 v 22.656003 h 71.04 c 12.48,0 18.048,7.872 18.048,17.088 0,9.216 -5.184,18.048 -18.048,18.048 h -50.496 c -14.208,0 -20.352,5.952 -20.352,20.544 v 51.264 h 22.656 v -46.848 c 0,-2.304 1.152,-3.264 3.264,-3.264 h 33.792 l 29.568,50.112 h 25.152 l -30.144,-51.84 c 19.776,-5.568 27.456,-22.848 27.456,-38.976 0,-20.736 -12.48,-38.784003 -41.664,-38.784003 z"
         id="path40233" />
      <path
         d="m 516.30923,83.996747 c -7.296,0 -10.752,3.456 -10.752,10.56 V 203.03675 c 0,7.104 3.456,10.56 10.752,10.56 h 57.6 c 30.528,0 43.392,-14.976 43.392,-35.712 0,-14.976 -6.912,-24.576 -19.2,-29.568 12.096,-4.8 18.624,-13.824 18.624,-28.8 0,-21.120003 -12.864,-35.520003 -43.392,-35.520003 z m 11.52,73.536003 h 46.656 c 13.248,0 19.968,5.76 19.968,16.704 0,10.56 -6.336,16.896 -19.968,16.896 h -44.16 c -1.536,0 -2.496,-0.576 -2.496,-2.112 z m 0,-48.96 c 0,-1.536 0.96,-2.304 2.496,-2.304 h 43.776 c 13.824,0 19.776,6.72 19.776,16.896 0,10.56 -6.528,15.552 -19.968,15.552 h -46.08 z"
         id="path40235" />
      <path
         d="M 643.60521,83.996747 V 213.59675 h 22.656 V 83.996747 Z"
         id="path40237" />
      <path
         d="m 708.30887,83.996747 c -7.296,0 -10.752,3.456 -10.752,10.56 V 203.03675 c 0,7.104 3.456,10.56 10.752,10.56 h 45.696 c 38.016,0 58.368,-21.12 58.368,-64.704 0,-43.776 -20.544,-64.896003 -58.368,-64.896003 z m 11.904,24.960003 c 0,-1.728 0.768,-2.304 2.496,-2.304 h 31.296 c 25.152,0 35.712,12.48 35.712,42.048 0,29.76 -10.56,42.24 -35.712,42.24 h -31.296 c -1.728,0 -2.496,-0.576 -2.496,-2.304 z"
         id="path40239" />
      <path
         d="m 877.65277,83.996747 c -30.528,0 -43.392,14.592 -43.392,35.328003 0,14.208 6.144,24.192 18.24,29.184 -11.904,4.992 -18.624,14.976 -18.624,29.76 0,20.16 12.48,35.328 43.2,35.328 h 65.664 v -22.656 h -65.664 c -13.248,0 -19.584,-6.144 -19.584,-16.32 0,-10.56 6.72,-15.744 19.776,-15.744 h 64.32 v -20.544 h -63.744 c -13.056,0 -19.776,-4.8 -19.776,-15.36 0,-9.984 5.952,-16.32 19.584,-16.32 h 64.896 V 83.996747 Z"
         id="path40241" />
    </g>
  </g>
</svg>
