<?xml version="1.0" encoding="UTF-8" standalone="no"?>
<!-- Created with Inkscape (http://www.inkscape.org/) -->

<svg
   width="269.16232mm"
   height="58.305832mm"
   viewBox="0 0 269.16232 58.305832"
   version="1.1"
   id="svg11196"
   xml:space="preserve"
   sodipodi:docname="rancher_carbide_long_light_bg.svg"
   inkscape:version="1.2.2 (b0a84865, 2022-12-01)"
   xmlns:inkscape="http://www.inkscape.org/namespaces/inkscape"
   xmlns:sodipodi="http://sodipodi.sourceforge.net/DTD/sodipodi-0.dtd"
   xmlns="http://www.w3.org/2000/svg"
   xmlns:svg="http://www.w3.org/2000/svg"><sodipodi:namedview
     id="namedview11198"
     pagecolor="#ffffff"
     bordercolor="#000000"
     borderopacity="0.25"
     inkscape:showpageshadow="2"
     inkscape:pageopacity="0.0"
     inkscape:pagecheckerboard="0"
     inkscape:deskcolor="#d1d1d1"
     inkscape:document-units="mm"
     showgrid="false"
     inkscape:zoom="1.0709335"
     inkscape:cx="623.28802"
     inkscape:cy="113.91931"
     inkscape:window-width="1309"
     inkscape:window-height="456"
     inkscape:window-x="0"
     inkscape:window-y="33"
     inkscape:window-maximized="0"
     inkscape:current-layer="Layer_1-2" /><defs
     id="defs11193" /><g
     inkscape:label="Layer 1"
     inkscape:groupmode="layer"
     id="layer1"
     transform="translate(-13.880411,-134.16099)"><g
       id="Layer_2_1_"
       transform="matrix(0.26458333,0,0,0.26458333,13.884503,134.16099)">
	<g
   id="Layer_1-2">
		<path
   class="st0"
   d="m 283.51007,2.1709039 h 51.73988 c 24.60357,0 41.06626,11.9399711 41.06626,34.9153701 0,18.8145 -12.84451,30.030837 -25.32721,34.010827 3.61817,3.256356 6.69362,7.417255 8.68361,11.939972 5.24635,10.492702 8.68362,22.251767 19.71905,22.251767 1.62818,0 3.43726,-0.36182 5.06544,-0.90455 l -2.35181,22.07086 c -4.1609,0.90454 -8.3218,1.44727 -12.4827,1.62818 -14.83451,0 -23.33722,-5.78908 -32.02083,-25.68903 -3.61818,-8.864525 -8.86453,-24.603578 -15.73906,-24.603578 h -7.05543 V 127.35969 H 283.69098 V 2.1709039 Z m 31.11629,22.6135821 v 30.754471 h 11.21634 c 8.86452,0 19.35722,-2.71363 19.35722,-16.10087 0,-11.035428 -7.05544,-14.653601 -15.55814,-14.653601 z"
   id="path12110"
   style="fill:#000000;fill-opacity:1;stroke-width:1.80909" />
		<path
   class="st0"
   d="m 418.28702,2.1709039 h 31.4781 L 492.09775,127.5406 h -31.47811 l -7.77907,-23.87994 h -41.97081 l -7.59816,23.87994 h -27.1363 z m 0,78.6952651 h 26.95539 L 436.7397,54.453505 c -1.98999,-7.055437 -3.43726,-14.291784 -4.34181,-21.52813 h -0.72363 c -1.08545,7.236346 -2.53272,14.291784 -4.70363,21.347222 z"
   id="path12112"
   style="fill:#000000;fill-opacity:1;stroke-width:1.80909" />
		<path
   class="st0"
   d="m 493.36411,2.1709039 h 33.28719 l 32.92538,62.2325771 c 2.71363,5.42726 6.51271,14.83451 9.40725,22.251765 h 0.72363 C 569.34575,79.599808 568.4412,69.468924 568.4412,62.232577 V 2.1709039 h 25.50812 V 127.5406 H 561.38576 L 527.19403,65.488933 c -3.43727,-6.69362 -6.51271,-13.38724 -9.04543,-20.442678 h -0.72364 c 0.54273,7.055438 1.44727,15.377236 1.44727,22.251765 V 127.5406 H 493.1832 V 2.1709039 Z"
   id="path12114"
   style="fill:#000000;fill-opacity:1;stroke-width:1.80909" />
		<path
   class="st0"
   d="M 600.46203,64.041664 C 600.46203,18.633591 622.89471,0 657.62917,0 c 36.54355,0 51.37806,20.080861 47.21716,47.217159 l -28.94539,2.532721 c 3.25636,-19.899952 -4.70362,-27.859933 -18.8145,-27.859933 -13.56815,0 -24.60357,10.130885 -24.60357,42.332626 0,34.191735 11.93997,42.875347 25.50812,42.875347 12.84451,0 23.1563,-7.959977 20.9854,-24.422665 l 27.1363,2.71363 c 1.98999,25.508125 -16.28178,44.141715 -49.74988,44.141715 -33.82992,0.36181 -55.71987,-19.71905 -55.90078,-65.488936"
   id="path12116"
   style="fill:#000000;fill-opacity:1;stroke-width:1.80909" />
		<polygon
   class="st0"
   points="549.9,41.2 549.9,70.6 532.8,70.6 532.8,1.2 549.9,1.2 549.9,27.4 571,27.4 571,1.2 588.1,1.2 588.1,70.6 571,70.6 571,41.2 "
   id="polygon12118"
   style="fill:#000000;fill-opacity:1"
   transform="matrix(1.8090866,0,0,1.8090866,-247.63774,0)" />
		<polygon
   class="st0"
   points="639.9,57.8 639.9,70.6 593,70.6 593,1.2 638.9,1.2 638.9,14 610.2,14 610.2,28.9 634.3,28.9 634.3,41.6 610.2,41.6 610.2,57.8 "
   id="polygon12120"
   style="fill:#000000;fill-opacity:1"
   transform="matrix(1.8090866,0,0,1.8090866,-247.63774,0)" />
		<path
   class="st0"
   d="m 915.96673,2.1709039 h 51.55897 c 24.60357,0 41.0663,11.9399711 41.0663,34.9153701 0,18.8145 -12.84453,30.030837 -25.32725,34.010827 3.61817,3.256356 6.69362,7.417255 8.68362,11.939972 5.2463,10.492702 8.68363,22.251767 19.71903,22.251767 1.6282,0 3.4373,-0.36182 5.0655,-0.90455 l -2.3518,22.07086 c -4.1609,0.90454 -8.3218,1.44727 -12.4827,1.62818 -14.83457,0 -23.33728,-5.78908 -32.2018,-25.68903 -3.61817,-8.864525 -8.86452,-24.603578 -15.73905,-24.603578 h -7.05544 v 49.568968 h -30.93538 z m 31.11629,22.6135821 v 30.754471 h 11.21633 c 8.86453,0 19.35723,-2.71363 19.35723,-16.10087 0,-11.035428 -7.05544,-14.653601 -15.55814,-14.653601 z"
   id="path12122"
   style="fill:#000000;fill-opacity:1;stroke-width:1.80909" />
		
		
		
		
		
		
		
		<rect
   x="123.3"
   y="1.3"
   class="st1"
   width="139.5"
   height="17.9"
   id="rect12138"
   style="fill:#ea282f;fill-opacity:1" />
		<rect
   x="123.3"
   y="37.099998"
   class="st1"
   width="139.5"
   height="17.9"
   id="rect12140"
   style="fill:#ea282f;fill-opacity:1" />
		<rect
   y="72.900002"
   class="st1"
   width="262.79999"
   height="17.9"
   id="rect12142"
   x="0"
   style="fill:#ea282f;fill-opacity:1" />
		<rect
   y="108.8"
   class="st1"
   width="262.79999"
   height="17.9"
   id="rect12144"
   x="0"
   style="fill:#ea282f;fill-opacity:1" />
		<path
   class="st2"
   d="m 114.4,13.1 -1.2,-7.4 c -0.4,-2.4 -1.3,-4.4 -2.1,-4.4 -0.8,0 -1.3,2 -1.3,4.4 v 2 c 0,2.4 -2,4.3 -4.4,4.3 H 103 v 5.4 h 7.8 c 2,0.1 3.7,-1.5 3.8,-3.5 -0.1,-0.3 -0.1,-0.6 -0.2,-0.8"
   id="path12146"
   style="fill:#1a226e;fill-opacity:1" />
		<path
   class="st2"
   d="M 96.9,6.8 H 72.5 c -0.1,0 -0.3,0 -0.4,0 V 5.6 c 0,-2.4 -0.6,-4.4 -1.3,-4.4 -0.7,0 -1.7,2 -2.1,4.3 L 67.4,13 c -0.4,2 0.8,3.9 2.8,4.3 0.3,0.1 0.6,0.1 0.9,0.1 h 7.3 c 0.7,0 1.4,-0.1 2.1,-0.4 -0.2,1.3 -1.3,2.2 -2.6,2.2 H 67.6 c -1.5,0 -2.7,-1.2 -2.7,-2.7 0,0 0,0 0,0 0,-0.1 0,-0.3 0,-0.4 l 1,-6.2 c 0.2,-1.5 -0.7,-2.8 -2.2,-3.1 0,0 0,0 0,0 -0.1,0 -0.3,0 -0.4,0 H 12.2 c -1.1,0 -2,0.6 -2.4,1.6 L 0.1,23 c -0.2,0.2 -0.1,0.6 0,0.8 L 2,26 c 0.2,0.3 0.6,0.3 0.9,0.1 L 9.4,21 v 31.3 c 0,1.5 1.2,2.7 2.6,2.7 0,0 0,0 0.1,0 h 14.5 c 1.5,0 2.7,-1.2 2.7,-2.7 V 41.4 c 0,-1.5 1.2,-2.7 2.7,-2.7 0,0 0,0 0,0 h 36.2 c 1.5,0 2.7,1.2 2.7,2.7 0,0 0,0 0,0 v 10.9 c 0,1.5 1.2,2.7 2.6,2.7 0,0 0,0 0.1,0 h 14.5 c 1.5,0 2.7,-1.2 2.7,-2.7 v 0 -11.8 h -7.7 c -2.4,0 -4.4,-2 -4.4,-4.4 0,0 0,0 0,0 v -7.5 c 0,-1.4 0.7,-2.7 1.8,-3.5 v 9 c 0,2.4 2,4.4 4.4,4.4 h 11.8 c 2.4,0 4.4,-2 4.4,-4.4 v -23 C 101.2,8.7 99.3,6.8 96.9,6.8"
   id="path12148"
   style="fill:#1a226e;fill-opacity:1" />
	<g
   aria-label="Government Solutions"
   id="text15513"
   style="font-weight:bold;font-size:92.7705px;font-family:'Poppins ExtraBold';-inkscape-font-specification:'Poppins ExtraBold,  Bold';text-align:center;text-anchor:middle;fill:#ea282f;stroke:#ffffff;stroke-width:0"><path
     d="m 52.293825,173.61219 q -2.690344,-5.659 -7.792722,-8.72043 -5.102377,-3.1542 -11.874624,-3.1542 -6.772246,0 -12.245706,3.1542 -5.380689,3.06143 -8.534886,8.90597 -3.0614263,5.75177 -3.0614263,13.35895 0,7.60718 3.0614263,13.35895 3.154197,5.75177 8.534886,8.90597 5.47346,3.06143 12.245706,3.06143 9.462591,0 15.585444,-5.659 6.122853,-5.659 7.143329,-15.30714 H 29.565053 v -6.86501 H 64.35399 v 6.49393 q -0.742164,7.97826 -5.009607,14.65774 -4.267443,6.58671 -11.22523,10.48307 -6.957788,3.80359 -15.492674,3.80359 -8.998738,0 -16.420378,-4.17467 -7.4216403,-4.26745 -11.7818538,-11.78186 -4.267443,-7.51441 -4.267443,-16.977 0,-9.46259 4.267443,-16.977 4.3602135,-7.60718 11.7818538,-11.78186 7.42164,-4.26744 16.420378,-4.26744 10.297526,0 18.183018,5.10238 7.978263,5.10238 11.596313,14.37943 z"
     style="font-weight:normal;font-family:Poppins;-inkscape-font-specification:Poppins;fill:#000000"
     id="path56057" /><path
     d="m 97.658589,220.36852 q -7.143329,0 -12.98787,-3.24697 -5.751771,-3.24697 -9.091509,-9.18428 -3.246968,-6.03008 -3.246968,-13.91557 0,-7.79272 3.339738,-13.73004 3.432509,-6.03008 9.27705,-9.18428 5.844542,-3.24696 13.080641,-3.24696 7.236099,0 13.080639,3.24696 5.84454,3.1542 9.18428,9.09151 3.43251,5.93731 3.43251,13.82281 0,7.88549 -3.52528,13.91557 -3.43251,5.93731 -9.36982,9.18428 -5.93731,3.24697 -13.173411,3.24697 z m 0,-7.42164 q 4.545751,0 8.534881,-2.13372 3.98914,-2.13372 6.40117,-6.40117 2.5048,-4.26744 2.5048,-10.39029 0,-6.12286 -2.41203,-10.3903 -2.41203,-4.26744 -6.30839,-6.30839 -3.89637,-2.13372 -8.44212,-2.13372 -4.638525,0 -8.534886,2.13372 -3.80359,2.04095 -6.122853,6.30839 -2.319262,4.26744 -2.319262,10.3903 0,6.21562 2.226492,10.48306 2.319262,4.26745 6.122853,6.40117 3.80359,2.04095 8.349345,2.04095 z"
     style="font-weight:normal;font-family:Poppins;-inkscape-font-specification:Poppins;fill:#000000"
     id="path56059" /><path
     d="m 153.78468,211.74086 15.77098,-43.04551 h 8.99874 l -19.94566,50.83823 h -9.83367 l -19.94566,-50.83823 h 9.09151 z"
     style="font-weight:normal;font-family:Poppins;-inkscape-font-specification:Poppins;fill:#000000"
     id="path56061" /><path
     d="m 233.2889,192.16629 q 0,2.41203 -0.27831,5.10237 h -40.63348 q 0.46385,7.51442 5.10238,11.78186 4.7313,4.17467 11.41077,4.17467 5.47346,0 9.09151,-2.5048 3.71082,-2.59758 5.19515,-6.86502 h 9.09151 q -2.04095,7.32887 -8.16381,11.96739 -6.12285,4.54576 -15.21436,4.54576 -7.2361,0 -12.98787,-3.24697 -5.659,-3.24697 -8.90597,-9.18428 -3.24696,-6.03008 -3.24696,-13.91557 0,-7.8855 3.15419,-13.82281 3.1542,-5.93731 8.8132,-9.09151 5.75177,-3.24696 13.17341,-3.24696 7.2361,0 12.80233,3.15419 5.56623,3.1542 8.53489,8.72043 3.06142,5.47346 3.06142,12.43125 z m -8.72042,-1.76264 q 0,-4.82407 -2.13373,-8.25658 -2.13372,-3.52528 -5.84454,-5.28792 -3.61805,-1.85541 -8.07103,-1.85541 -6.40117,0 -10.94692,4.08191 -4.45298,4.0819 -5.10238,11.318 z"
     style="font-weight:normal;font-family:Poppins;-inkscape-font-specification:Poppins;fill:#000000"
     id="path56063" /><path
     d="m 252.86338,176.95193 q 2.22649,-4.36022 6.30839,-6.77225 4.17467,-2.41203 10.11199,-2.41203 v 8.72042 h -2.2265 q -14.19388,0 -14.19388,15.39991 v 27.6456 h -8.44212 v -50.83823 h 8.44212 z"
     style="font-weight:normal;font-family:Poppins;-inkscape-font-specification:Poppins;fill:#000000"
     id="path56065" /><path
     d="m 303.79432,167.76765 q 9.27705,0 15.02882,5.659 5.75177,5.56623 5.75177,16.14206 v 29.96487 h -8.34935 v -28.75885 q 0,-7.60718 -3.80359,-11.59631 -3.80359,-4.0819 -10.39029,-4.0819 -6.67948,0 -10.66861,4.17467 -3.89636,4.17467 -3.89636,12.15293 v 28.10946 h -8.44212 v -50.83823 h 8.44212 v 7.2361 q 2.5048,-3.89636 6.77225,-6.03008 4.36021,-2.13372 9.55536,-2.13372 z"
     style="font-weight:normal;font-family:Poppins;-inkscape-font-specification:Poppins;fill:#000000"
     id="path56067" /><path
     d="m 399.5334,167.76765 q 5.93731,0 10.57584,2.5048 4.63852,2.41203 7.32887,7.32887 2.69034,4.91684 2.69034,11.96739 v 29.96487 h -8.34934 v -28.75885 q 0,-7.60718 -3.80359,-11.59631 -3.71082,-4.0819 -10.11199,-4.0819 -6.5867,0 -10.48307,4.26744 -3.89636,4.17467 -3.89636,12.15293 v 28.01669 h -8.34934 v -28.75885 q 0,-7.60718 -3.80359,-11.59631 -3.71082,-4.0819 -10.11199,-4.0819 -6.5867,0 -10.48306,4.26744 -3.89636,4.17467 -3.89636,12.15293 v 28.01669 h -8.44212 v -50.83823 h 8.44212 v 7.32887 q 2.5048,-3.98913 6.67947,-6.12285 4.26745,-2.13372 9.36982,-2.13372 6.40117,0 11.318,2.87588 4.91684,2.87589 7.32887,8.44212 2.13372,-5.38069 7.05056,-8.34935 4.91684,-2.96865 10.94692,-2.96865 z"
     style="font-weight:normal;font-family:Poppins;-inkscape-font-specification:Poppins;fill:#000000"
     id="path56069" /><path
     d="m 480.33639,192.16629 q 0,2.41203 -0.27831,5.10237 H 439.4246 q 0.46385,7.51442 5.10237,11.78186 4.7313,4.17467 11.41078,4.17467 5.47346,0 9.09151,-2.5048 3.71082,-2.59758 5.19514,-6.86502 h 9.09151 q -2.04095,7.32887 -8.1638,11.96739 -6.12285,4.54576 -15.21436,4.54576 -7.2361,0 -12.98787,-3.24697 -5.659,-3.24697 -8.90597,-9.18428 -3.24697,-6.03008 -3.24697,-13.91557 0,-7.8855 3.1542,-13.82281 3.15419,-5.93731 8.8132,-9.09151 5.75177,-3.24696 13.17341,-3.24696 7.2361,0 12.80233,3.15419 5.56623,3.1542 8.53488,8.72043 3.06143,5.47346 3.06143,12.43125 z m -8.72043,-1.76264 q 0,-4.82407 -2.13372,-8.25658 -2.13372,-3.52528 -5.84454,-5.28792 -3.61805,-1.85541 -8.07104,-1.85541 -6.40116,0 -10.94691,4.08191 -4.45299,4.0819 -5.10238,11.318 z"
     style="font-weight:normal;font-family:Poppins;-inkscape-font-specification:Poppins;fill:#000000"
     id="path56071" /><path
     d="m 516.2385,167.76765 q 9.27705,0 15.02882,5.659 5.75177,5.56623 5.75177,16.14206 v 29.96487 h -8.34934 v -28.75885 q 0,-7.60718 -3.80359,-11.59631 -3.80359,-4.0819 -10.3903,-4.0819 -6.67947,0 -10.66861,4.17467 -3.89636,4.17467 -3.89636,12.15293 v 28.10946 h -8.44211 v -50.83823 h 8.44211 v 7.2361 q 2.50481,-3.89636 6.77225,-6.03008 4.36021,-2.13372 9.55536,-2.13372 z"
     style="font-weight:normal;font-family:Poppins;-inkscape-font-specification:Poppins;fill:#000000"
     id="path56073" /><path
     d="m 561.13935,175.65314 v 29.96487 q 0,3.71082 1.5771,5.28792 1.5771,1.48433 5.47346,1.48433 h 6.21562 v 7.14332 h -7.60718 q -7.05056,0 -10.57584,-3.24696 -3.52528,-3.24697 -3.52528,-10.66861 v -29.96487 h -6.5867 v -6.95779 h 6.5867 v -12.80233 h 8.44212 v 12.80233 h 13.26618 v 6.95779 z"
     style="font-weight:normal;font-family:Poppins;-inkscape-font-specification:Poppins;fill:#000000"
     id="path56075" /><path
     d="m 629.88201,220.18298 q -6.40117,0 -11.50354,-2.22649 -5.00961,-2.31927 -7.8855,-6.3084 -2.87588,-4.0819 -2.96865,-9.36982 h 8.99874 q 0.46385,4.54576 3.71082,7.69995 3.33973,3.06143 9.64813,3.06143 6.03008,0 9.46259,-2.96866 3.52528,-3.06142 3.52528,-7.79272 0,-3.71082 -2.04095,-6.03008 -2.04095,-2.31926 -5.10238,-3.52528 -3.06143,-1.20602 -8.25658,-2.59757 -6.40116,-1.66987 -10.29752,-3.33974 -3.80359,-1.66987 -6.58671,-5.19515 -2.69034,-3.61805 -2.69034,-9.64813 0,-5.28792 2.69034,-9.36982 2.69035,-4.0819 7.51441,-6.3084 4.91684,-2.22649 11.22523,-2.22649 9.09151,0 14.84328,4.54576 5.84455,4.54575 6.58671,12.06016 h -9.27705 q -0.46385,-3.71082 -3.89636,-6.49393 -3.43251,-2.87589 -9.09151,-2.87589 -5.28792,0 -8.62766,2.78312 -3.33973,2.69034 -3.33973,7.60718 0,3.52528 1.94818,5.75177 2.04095,2.22649 4.91683,3.43251 2.96866,1.11324 8.25658,2.59757 6.40116,1.76264 10.29752,3.52528 3.89636,1.66987 6.67948,5.28792 2.78311,3.52528 2.78311,9.64813 0,4.7313 -2.5048,8.90597 -2.5048,4.17467 -7.42164,6.77224 -4.91684,2.59758 -11.59631,2.59758 z"
     style="font-weight:normal;font-family:Poppins;-inkscape-font-specification:Poppins;fill:#000000"
     id="path56077" /><path
     d="m 686.00811,220.36852 q -7.14332,0 -12.98787,-3.24697 -5.75177,-3.24697 -9.0915,-9.18428 -3.24697,-6.03008 -3.24697,-13.91557 0,-7.79272 3.33974,-13.73004 3.4325,-6.03008 9.27705,-9.18428 5.84454,-3.24696 13.08064,-3.24696 7.2361,0 13.08064,3.24696 5.84454,3.1542 9.18428,9.09151 3.4325,5.93731 3.4325,13.82281 0,7.88549 -3.52527,13.91557 -3.43251,5.93731 -9.36982,9.18428 -5.93732,3.24697 -13.17342,3.24697 z m 0,-7.42164 q 4.54576,0 8.53489,-2.13372 3.98913,-2.13372 6.40116,-6.40117 2.50481,-4.26744 2.50481,-10.39029 0,-6.12286 -2.41203,-10.3903 -2.41204,-4.26744 -6.3084,-6.30839 -3.89636,-2.13372 -8.44211,-2.13372 -4.63853,0 -8.53489,2.13372 -3.80359,2.04095 -6.12285,6.30839 -2.31927,4.26744 -2.31927,10.3903 0,6.21562 2.2265,10.48306 2.31926,4.26745 6.12285,6.40117 3.80359,2.04095 8.34934,2.04095 z"
     style="font-weight:normal;font-family:Poppins;-inkscape-font-specification:Poppins;fill:#000000"
     id="path56079" /><path
     d="m 731.65119,150.88341 v 68.65017 h -8.44212 v -68.65017 z"
     style="font-weight:normal;font-family:Poppins;-inkscape-font-specification:Poppins;fill:#000000"
     id="path56081" /><path
     d="m 791.11689,168.69535 v 50.83823 h -8.44212 v -7.51441 q -2.41203,3.89637 -6.77225,6.12286 -4.26744,2.13372 -9.46259,2.13372 -5.93731,0 -10.6686,-2.41203 -4.7313,-2.50481 -7.51442,-7.42164 -2.69034,-4.91684 -2.69034,-11.9674 v -29.77933 h 8.34935 v 28.66609 q 0,7.51441 3.80359,11.59631 3.80359,3.98913 10.39029,3.98913 6.77225,0 10.66861,-4.17467 3.89636,-4.17468 3.89636,-12.15294 v -27.92392 z"
     style="font-weight:normal;font-family:Poppins;-inkscape-font-specification:Poppins;fill:#000000"
     id="path56083" /><path
     d="m 815.70099,175.65314 v 29.96487 q 0,3.71082 1.5771,5.28792 1.5771,1.48433 5.47346,1.48433 h 6.21563 v 7.14332 H 821.36 q -7.05056,0 -10.57584,-3.24696 -3.52528,-3.24697 -3.52528,-10.66861 v -29.96487 h -6.58671 v -6.95779 h 6.58671 v -12.80233 h 8.44211 v 12.80233 h 13.26619 v 6.95779 z"
     style="font-weight:normal;font-family:Poppins;-inkscape-font-specification:Poppins;fill:#000000"
     id="path56085" /><path
     d="m 843.53205,160.43878 q -2.41203,0 -4.0819,-1.66987 -1.66987,-1.66987 -1.66987,-4.08191 0,-2.41203 1.66987,-4.0819 1.66987,-1.66987 4.0819,-1.66987 2.31927,0 3.89637,1.66987 1.66986,1.66987 1.66986,4.0819 0,2.41204 -1.66986,4.08191 -1.5771,1.66987 -3.89637,1.66987 z m 4.08191,8.25657 v 50.83823 h -8.44212 v -50.83823 z"
     style="font-weight:normal;font-family:Poppins;-inkscape-font-specification:Poppins;fill:#000000"
     id="path56087" /><path
     d="m 884.16534,220.36852 q -7.14333,0 -12.98787,-3.24697 -5.75177,-3.24697 -9.09151,-9.18428 -3.24697,-6.03008 -3.24697,-13.91557 0,-7.79272 3.33974,-13.73004 3.43251,-6.03008 9.27705,-9.18428 5.84454,-3.24696 13.08064,-3.24696 7.2361,0 13.08064,3.24696 5.84454,3.1542 9.18428,9.09151 3.43251,5.93731 3.43251,13.82281 0,7.88549 -3.52528,13.91557 -3.43251,5.93731 -9.36982,9.18428 -5.93731,3.24697 -13.17341,3.24697 z m 0,-7.42164 q 4.54576,0 8.53489,-2.13372 3.98913,-2.13372 6.40116,-6.40117 2.5048,-4.26744 2.5048,-10.39029 0,-6.12286 -2.41203,-10.3903 -2.41203,-4.26744 -6.30839,-6.30839 -3.89636,-2.13372 -8.44212,-2.13372 -4.63852,0 -8.53488,2.13372 -3.80359,2.04095 -6.12286,6.30839 -2.31926,4.26744 -2.31926,10.3903 0,6.21562 2.22649,10.48306 2.31927,4.26745 6.12286,6.40117 3.80359,2.04095 8.34934,2.04095 z"
     style="font-weight:normal;font-family:Poppins;-inkscape-font-specification:Poppins;fill:#000000"
     id="path56089" /><path
     d="m 946.13596,167.76765 q 9.27705,0 15.02882,5.659 5.75177,5.56623 5.75177,16.14206 v 29.96487 h -8.34934 v -28.75885 q 0,-7.60718 -3.80359,-11.59631 -3.80359,-4.0819 -10.3903,-4.0819 -6.67947,0 -10.66861,4.17467 -3.89636,4.17467 -3.89636,12.15293 v 28.10946 h -8.44211 v -50.83823 h 8.44211 v 7.2361 q 2.50481,-3.89636 6.77225,-6.03008 4.36021,-2.13372 9.55536,-2.13372 z"
     style="font-weight:normal;font-family:Poppins;-inkscape-font-specification:Poppins;fill:#000000"
     id="path56091" /><path
     d="m 998.73682,220.36852 q -5.84454,0 -10.48306,-1.94818 -4.63853,-2.04095 -7.32887,-5.56623 -2.69035,-3.61805 -2.96866,-8.25658 h 8.72043 q 0.37108,3.80359 3.52528,6.21563 3.24696,2.41203 8.44211,2.41203 4.82405,0 7.60715,-2.13372 2.7831,-2.13372 2.7831,-5.38069 0,-3.33974 -2.9686,-4.91684 -2.9687,-1.66987 -9.18429,-3.24696 -5.659,-1.48433 -9.27705,-2.96866 -3.52528,-1.5771 -6.12285,-4.54575 -2.5048,-3.06143 -2.5048,-7.97827 0,-3.89636 2.31926,-7.14333 2.31926,-3.24696 6.5867,-5.10237 4.26745,-1.94818 9.74091,-1.94818 8.44212,0 13.63722,4.26744 5.1952,4.26744 5.5663,11.68908 h -8.4421 q -0.2784,-3.98913 -3.247,-6.40116 -2.8759,-2.41204 -7.79273,-2.41204 -4.54576,0 -7.2361,1.94819 -2.69035,1.94818 -2.69035,5.10237 0,2.50481 1.5771,4.17468 1.66987,1.57709 4.0819,2.59757 2.50481,0.9277 6.86502,2.13372 5.47346,1.48433 8.90596,2.96866 3.4325,1.39155 5.8445,4.26744 2.5049,2.87589 2.5976,7.51441 0,4.17467 -2.3192,7.51441 -2.3193,3.33974 -6.5867,5.28792 -4.1747,1.85541 -9.64818,1.85541 z"
     style="font-weight:normal;font-family:Poppins;-inkscape-font-specification:Poppins;fill:#000000"
     id="path56093" /></g></g>
</g></g><style
     type="text/css"
     id="style12108">
	.st0{fill:#59595B;}
	.st1{fill:#F15354;}
	.st2{fill:#0575A7;}
</style></svg>
