<?xml version="1.0" encoding="UTF-8" standalone="no"?>
<!-- Created with Inkscape (http://www.inkscape.org/) -->

<svg
   width="148.76257mm"
   height="97.573418mm"
   viewBox="0 0 148.76257 97.573418"
   version="1.1"
   id="svg11196"
   xml:space="preserve"
   sodipodi:docname="rancher-logo-stacked-color-svg.svg"
   xmlns:inkscape="http://www.inkscape.org/namespaces/inkscape"
   xmlns:sodipodi="http://sodipodi.sourceforge.net/DTD/sodipodi-0.dtd"
   xmlns="http://www.w3.org/2000/svg"
   xmlns:svg="http://www.w3.org/2000/svg"><sodipodi:namedview
     id="namedview11198"
     pagecolor="#ffffff"
     bordercolor="#000000"
     borderopacity="0.25"
     inkscape:showpageshadow="2"
     inkscape:pageopacity="0.0"
     inkscape:pagecheckerboard="0"
     inkscape:deskcolor="#d1d1d1"
     inkscape:document-units="mm"
     showgrid="false"><inkscape:page
       x="0"
       y="7.902554e-21"
       width="148.76257"
       height="97.573425"
       id="page2"
       margin="0"
       bleed="0" /></sodipodi:namedview><defs
     id="defs11193" /><g
     inkscape:label="Layer 1"
     inkscape:groupmode="layer"
     id="layer1"
     transform="translate(-32.389421,-58.394101)"><g
       id="Layer_2_1_"
       transform="matrix(0.26458333,0,0,0.26458333,13.884503,134.16099)">
	<g
   id="Layer_1-2">
		<path
   class="st0"
   d="m 69.93985,-72.329224 h 39.64932 c 18.85421,0 31.46991,9.149842 31.46991,26.756356 0,14.417933 -9.84301,23.013239 -19.40876,26.063187 2.77268,2.495411 5.12946,5.683992 6.65443,9.149842 4.02038,8.0407709 6.65443,17.051981 15.11111,17.051981 1.2477,0 2.63404,-0.27727 3.88175,-0.6931751 l -1.80224,16.9133481 c -3.18858,0.693167 -6.37717,1.109072 -9.56575,1.247707 -11.36799,0 -17.88378,-4.436289 -24.53821,-19.6860248 -2.77269,-6.7930653 -6.79307,-18.8542212 -12.061162,-18.8542212 H 93.923529 V 23.605482 H 70.078485 v -95.934706 z m 23.845044,17.329246 v 23.567775 h 8.595306 c 6.79306,0 14.83383,-2.079509 14.83383,-12.338423 0,-8.456672 -5.40672,-11.229352 -11.92251,-11.229352 z"
   id="path12110"
   style="fill:#000000;fill-opacity:1;stroke-width:1.38634" />
		<path
   class="st0"
   d="m 173.22216,-72.329224 h 24.12231 l 32.44035,96.073341 H 205.66251 L 199.70125,5.4444346 h -32.16309 l -5.82262,18.2996824 h -20.7951 z m 0,60.305778 h 20.65646 l -6.5158,-20.24056 c -1.52497,-5.406725 -2.63404,-10.952084 -3.32721,-16.497443 h -0.55454 c -0.8318,5.545359 -1.94087,10.952084 -3.60448,16.358809 z"
   id="path12112"
   style="fill:#000000;fill-opacity:1;stroke-width:1.38634" />
		<path
   class="st0"
   d="m 230.75526,-72.329224 h 25.50865 l 25.23138,47.690086 c 2.07951,4.159019 4.99083,11.367986 7.20897,17.0519789 h 0.55453 c -0.27726,-5.4067259 -0.97044,-13.1702279 -0.97044,-18.7155869 v -46.026478 h 19.54739 v 96.073341 h -24.95411 l -26.20182,-47.551451 c -2.63405,-5.129457 -4.99082,-10.258914 -6.93169,-15.665639 h -0.55454 c 0.4159,5.406725 1.10907,11.783888 1.10907,17.051979 v 46.165111 h -19.68603 v -96.073341 z"
   id="path12114"
   style="fill:#000000;fill-opacity:1;stroke-width:1.38634" />
		<path
   class="st0"
   d="m 312.82657,-24.916406 c 0,-34.797127 17.19061,-49.076426 43.80834,-49.076426 28.00406,0 39.37205,15.388371 36.18346,36.183467 l -22.18144,1.940875 c 2.49542,-15.249737 -3.60448,-21.349632 -14.41793,-21.349632 -10.39755,0 -18.85421,7.763503 -18.85421,32.44035 0,26.2018206 9.14984,32.8562487 19.54739,32.8562487 9.843,0 17.74514,-6.0998919 16.08153,-18.7155837 l 20.7951,2.0795098 c 1.52497,19.5473932 -12.47706,33.8266912 -38.12434,33.8266912 -25.92456,0.277263 -42.69927,-15.111108 -42.8379,-50.1855"
   id="path12116"
   style="fill:#000000;fill-opacity:1;stroke-width:1.38634" />
		<polygon
   class="st0"
   points="571,27.4 571,1.2 588.1,1.2 588.1,70.6 571,70.6 571,41.2 549.9,41.2 549.9,70.6 532.8,70.6 532.8,1.2 549.9,1.2 549.9,27.4 "
   id="polygon12118"
   style="fill:#000000;fill-opacity:1"
   transform="matrix(1.3863398,0,0,1.3863398,-337.08949,-73.992832)" />
		<polygon
   class="st0"
   points="610.2,14 610.2,28.9 634.3,28.9 634.3,41.6 610.2,41.6 610.2,57.8 639.9,57.8 639.9,70.6 593,70.6 593,1.2 638.9,1.2 638.9,14 "
   id="polygon12120"
   style="fill:#000000;fill-opacity:1"
   transform="matrix(1.3863398,0,0,1.3863398,-337.08949,-73.992832)" />
		<path
   class="st0"
   d="m 554.60422,-72.329224 h 39.51068 c 18.85422,0 31.46994,9.149842 31.46994,26.756356 0,14.417933 -9.84302,23.013239 -19.40878,26.063187 2.77267,2.495411 5.12945,5.683992 6.65443,9.149842 4.02035,8.0407709 6.65444,17.051981 15.11109,17.051981 1.24773,0 2.63408,-0.27727 3.8818,-0.6931751 l -1.80223,16.9133481 c -3.18859,0.693167 -6.37717,1.109072 -9.56575,1.247707 -11.36803,0 -17.88383,-4.436289 -24.67689,-19.6860248 -2.77268,-6.7930653 -6.79306,-18.8542212 -12.06116,-18.8542212 h -5.40672 v 37.985706 h -23.70641 z m 23.84504,17.329246 v 23.567775 h 8.5953 c 6.79307,0 14.83384,-2.079509 14.83384,-12.338423 0,-8.456672 -5.40672,-11.229352 -11.92252,-11.229352 z"
   id="path12122"
   style="fill:#000000;fill-opacity:1;stroke-width:1.38634" />
		
		
		
		
		
		
		
		<rect
   x="338.31445"
   y="-286.21548"
   class="st1"
   width="205.81413"
   height="26.409126"
   id="rect12138"
   style="fill:#ea282f;fill-opacity:1;stroke-width:1.47537" />
		<rect
   x="338.31445"
   y="-233.39729"
   class="st1"
   width="205.81413"
   height="26.409126"
   id="rect12140"
   style="fill:#ea282f;fill-opacity:1;stroke-width:1.47537" />
		<rect
   y="-180.57899"
   class="st1"
   width="387.72723"
   height="26.409126"
   id="rect12142"
   x="156.40131"
   style="fill:#ea282f;fill-opacity:1;stroke-width:1.47537" />
		<rect
   y="-127.61322"
   class="st1"
   width="387.72723"
   height="26.409126"
   id="rect12144"
   x="156.40131"
   style="fill:#ea282f;fill-opacity:1;stroke-width:1.47537" />
		<path
   class="st2"
   d="m 325.18364,-268.80615 -1.77044,-10.91773 c -0.59015,-3.54089 -1.91799,-6.49163 -3.09828,-6.49163 -1.1803,0 -1.91798,2.95074 -1.91798,6.49163 v 2.95074 c 0,3.54089 -2.95074,6.34408 -6.49163,6.34408 h -3.54089 v 7.96701 h 11.50789 c 2.95074,0.14753 5.45887,-2.21306 5.6064,-5.1638 -0.14753,-0.44261 -0.14753,-0.88522 -0.29507,-1.1803"
   id="path12146"
   style="fill:#1a226e;fill-opacity:1;stroke-width:1.47537" />
		<path
   class="st2"
   d="m 299.36466,-278.10098 h -35.99903 c -0.14753,0 -0.44261,0 -0.59015,0 v -1.77044 c 0,-3.54089 -0.88522,-6.49163 -1.91798,-6.49163 -1.03276,0 -2.50812,2.95074 -3.09828,6.34409 l -1.91797,11.06528 c -0.59015,2.95074 1.18029,5.75394 4.13103,6.34409 0.44261,0.14754 0.88522,0.14754 1.32783,0.14754 h 10.7702 c 1.03277,0 2.06553,-0.14754 3.09828,-0.59015 -0.29507,1.91798 -1.91798,3.24581 -3.83596,3.24581 h -15.19631 c -2.21306,0 -3.9835,-1.77044 -3.9835,-3.9835 0,0 0,0 0,0 0,-0.14754 0,-0.44261 0,-0.59014 l 1.47537,-9.1473 c 0.29507,-2.21305 -1.03276,-4.13104 -3.24582,-4.57365 0,0 0,0 0,0 -0.14753,0 -0.44261,0 -0.59015,0 h -75.39141 c -1.62291,0 -2.95074,0.88522 -3.54089,2.3606 l -14.31109,21.5404 c -0.29507,0.29507 -0.14754,0.88522 0,1.18029 l 2.8032,3.24582 c 0.29508,0.44261 0.88523,0.44261 1.32784,0.14754 l 9.5899,-7.52439 v 46.17908 c 0,2.21306 1.77045,3.9835 3.83597,3.9835 0,0 0,0 0.14753,0 h 21.39287 c 2.21305,0 3.9835,-1.77044 3.9835,-3.9835 v -16.08153 c 0,-2.21306 1.77044,-3.9835 3.9835,-3.9835 0,0 0,0 0,0 h 53.4084 c 2.21306,0 3.9835,1.77044 3.9835,3.9835 0,0 0,0 0,0 v 16.08153 c 0,2.21306 1.77044,3.9835 3.83596,3.9835 0,0 0,0 0.14754,0 h 21.39287 c 2.21305,0 3.98349,-1.77044 3.98349,-3.9835 v 0 -17.40937 h -11.36034 c -3.5409,0 -6.49163,-2.95073 -6.49163,-6.49163 0,0 0,0 0,0 v -11.06527 c 0,-2.06552 1.03275,-3.9835 2.65566,-5.16379 v 13.27833 c 0,3.54089 2.95075,6.49163 6.49163,6.49163 h 17.40937 c 3.54088,0 6.49163,-2.95074 6.49163,-6.49163 v -33.93351 c 0.14753,-3.5409 -2.65567,-6.3441 -6.19656,-6.3441"
   id="path12148"
   style="fill:#1a226e;fill-opacity:1;stroke-width:1.47537" />
	<text
   xml:space="preserve"
   style="font-style:normal;font-variant:normal;font-weight:bold;font-stretch:normal;font-size:51.2045px;font-family:'Poppins ExtraBold';-inkscape-font-specification:'Poppins ExtraBold,  Bold';text-align:center;text-anchor:middle;fill:#ea282f;fill-opacity:1;stroke:#ffffff;stroke-width:0"
   x="351.69388"
   y="81.957588"
   id="text15513"
   inkscape:export-filename="rgs-logo-simple-1.svg"
   inkscape:export-xdpi="96"
   inkscape:export-ydpi="96"><tspan
     sodipodi:role="line"
     id="tspan15511"
     x="351.69388"
     y="81.957588"
     style="font-style:normal;font-variant:normal;font-weight:normal;font-stretch:normal;font-family:Poppins;-inkscape-font-specification:Poppins;fill:#000000;fill-opacity:1;stroke-width:0">Government Solutions</tspan></text></g>
</g><path
       style="opacity:1;fill:#f9f9f9;stroke:#856f00;stroke-width:0"
       d="m 103.39687,65.420557 v 6.9874 h 54.45499 v -6.9874 z"
       id="path1" /><path
       style="opacity:1;fill:#f9f9f9;stroke:#856f00;stroke-width:0"
       d="m 103.39687,79.395373 v 6.987425 h 54.45497 l 2e-5,-6.987425 z"
       id="path2" /><path
       style="opacity:1;fill:#f9f9f9;stroke:#856f00;stroke-width:0"
       d="m 55.265681,93.370214 v 7.026446 H 157.85184 v -7.026446 z"
       id="path3" /></g><style
     type="text/css"
     id="style12108">
	.st0{fill:#59595B;}
	.st1{fill:#F15354;}
	.st2{fill:#0575A7;}
</style></svg>
