<?xml version="1.0" encoding="UTF-8" standalone="no"?>
<!-- Created with Inkscape (http://www.inkscape.org/) -->

<svg
   width="148.76257mm"
   height="97.573418mm"
   viewBox="0 0 148.76257 97.573418"
   version="1.1"
   id="svg11196"
   xml:space="preserve"
   sodipodi:docname="rancher-logo-stacked-color-svg.svg"
   inkscape:version="1.2.2 (b0a84865, 2022-12-01)"
   xmlns:inkscape="http://www.inkscape.org/namespaces/inkscape"
   xmlns:sodipodi="http://sodipodi.sourceforge.net/DTD/sodipodi-0.dtd"
   xmlns="http://www.w3.org/2000/svg"
   xmlns:svg="http://www.w3.org/2000/svg"><sodipodi:namedview
     id="namedview11198"
     pagecolor="#ffffff"
     bordercolor="#000000"
     borderopacity="0.25"
     inkscape:showpageshadow="2"
     inkscape:pageopacity="0.0"
     inkscape:pagecheckerboard="0"
     inkscape:deskcolor="#d1d1d1"
     inkscape:document-units="mm"
     showgrid="false"
     inkscape:zoom="0.6399454"
     inkscape:cx="222.67525"
     inkscape:cy="184.39073"
     inkscape:window-width="1419"
     inkscape:window-height="456"
     inkscape:window-x="0"
     inkscape:window-y="33"
     inkscape:window-maximized="0"
     inkscape:current-layer="Layer_1-2"><inkscape:page
       x="0"
       y="7.902554e-21"
       width="148.76257"
       height="97.573425"
       id="page2"
       margin="0"
       bleed="0" /></sodipodi:namedview><defs
     id="defs11193" /><g
     inkscape:label="Layer 1"
     inkscape:groupmode="layer"
     id="layer1"
     transform="translate(-32.389421,-58.394101)"><g
       id="Layer_2_1_"
       transform="matrix(0.26458333,0,0,0.26458333,13.884503,134.16099)">
	<g
   id="Layer_1-2">
		<path
   class="st0"
   d="m 69.93985,-72.329224 h 39.64932 c 18.85421,0 31.46991,9.149842 31.46991,26.756356 0,14.417933 -9.84301,23.013239 -19.40876,26.063187 2.77268,2.495411 5.12946,5.683992 6.65443,9.149842 4.02038,8.0407709 6.65443,17.051981 15.11111,17.051981 1.2477,0 2.63404,-0.27727 3.88175,-0.6931751 l -1.80224,16.9133481 c -3.18858,0.693167 -6.37717,1.109072 -9.56575,1.247707 -11.36799,0 -17.88378,-4.436289 -24.53821,-19.6860248 -2.77269,-6.7930653 -6.79307,-18.8542212 -12.061162,-18.8542212 H 93.923529 V 23.605482 H 70.078485 v -95.934706 z m 23.845044,17.329246 v 23.567775 h 8.595306 c 6.79306,0 14.83383,-2.079509 14.83383,-12.338423 0,-8.456672 -5.40672,-11.229352 -11.92251,-11.229352 z"
   id="path12110"
   style="fill:#000000;fill-opacity:1;stroke-width:1.38634" />
		<path
   class="st0"
   d="m 173.22216,-72.329224 h 24.12231 l 32.44035,96.073341 H 205.66251 L 199.70125,5.4444346 h -32.16309 l -5.82262,18.2996824 h -20.7951 z m 0,60.305778 h 20.65646 l -6.5158,-20.24056 c -1.52497,-5.406725 -2.63404,-10.952084 -3.32721,-16.497443 h -0.55454 c -0.8318,5.545359 -1.94087,10.952084 -3.60448,16.358809 z"
   id="path12112"
   style="fill:#000000;fill-opacity:1;stroke-width:1.38634" />
		<path
   class="st0"
   d="m 230.75526,-72.329224 h 25.50865 l 25.23138,47.690086 c 2.07951,4.159019 4.99083,11.367986 7.20897,17.0519789 h 0.55453 c -0.27726,-5.4067259 -0.97044,-13.1702279 -0.97044,-18.7155869 v -46.026478 h 19.54739 v 96.073341 h -24.95411 l -26.20182,-47.551451 c -2.63405,-5.129457 -4.99082,-10.258914 -6.93169,-15.665639 h -0.55454 c 0.4159,5.406725 1.10907,11.783888 1.10907,17.051979 v 46.165111 h -19.68603 v -96.073341 z"
   id="path12114"
   style="fill:#000000;fill-opacity:1;stroke-width:1.38634" />
		<path
   class="st0"
   d="m 312.82657,-24.916406 c 0,-34.797127 17.19061,-49.076426 43.80834,-49.076426 28.00406,0 39.37205,15.388371 36.18346,36.183467 l -22.18144,1.940875 c 2.49542,-15.249737 -3.60448,-21.349632 -14.41793,-21.349632 -10.39755,0 -18.85421,7.763503 -18.85421,32.44035 0,26.2018206 9.14984,32.8562487 19.54739,32.8562487 9.843,0 17.74514,-6.0998919 16.08153,-18.7155837 l 20.7951,2.0795098 c 1.52497,19.5473932 -12.47706,33.8266912 -38.12434,33.8266912 -25.92456,0.277263 -42.69927,-15.111108 -42.8379,-50.1855"
   id="path12116"
   style="fill:#000000;fill-opacity:1;stroke-width:1.38634" />
		<polygon
   class="st0"
   points="571,27.4 571,1.2 588.1,1.2 588.1,70.6 571,70.6 571,41.2 549.9,41.2 549.9,70.6 532.8,70.6 532.8,1.2 549.9,1.2 549.9,27.4 "
   id="polygon12118"
   style="fill:#000000;fill-opacity:1"
   transform="matrix(1.3863398,0,0,1.3863398,-337.08949,-73.992832)" />
		<polygon
   class="st0"
   points="610.2,14 610.2,28.9 634.3,28.9 634.3,41.6 610.2,41.6 610.2,57.8 639.9,57.8 639.9,70.6 593,70.6 593,1.2 638.9,1.2 638.9,14 "
   id="polygon12120"
   style="fill:#000000;fill-opacity:1"
   transform="matrix(1.3863398,0,0,1.3863398,-337.08949,-73.992832)" />
		<path
   class="st0"
   d="m 554.60422,-72.329224 h 39.51068 c 18.85422,0 31.46994,9.149842 31.46994,26.756356 0,14.417933 -9.84302,23.013239 -19.40878,26.063187 2.77267,2.495411 5.12945,5.683992 6.65443,9.149842 4.02035,8.0407709 6.65444,17.051981 15.11109,17.051981 1.24773,0 2.63408,-0.27727 3.8818,-0.6931751 l -1.80223,16.9133481 c -3.18859,0.693167 -6.37717,1.109072 -9.56575,1.247707 -11.36803,0 -17.88383,-4.436289 -24.67689,-19.6860248 -2.77268,-6.7930653 -6.79306,-18.8542212 -12.06116,-18.8542212 h -5.40672 v 37.985706 h -23.70641 z m 23.84504,17.329246 v 23.567775 h 8.5953 c 6.79307,0 14.83384,-2.079509 14.83384,-12.338423 0,-8.456672 -5.40672,-11.229352 -11.92252,-11.229352 z"
   id="path12122"
   style="fill:#000000;fill-opacity:1;stroke-width:1.38634" />
		
		
		
		
		
		
		
		<rect
   x="338.31445"
   y="-286.21548"
   class="st1"
   width="205.81413"
   height="26.409126"
   id="rect12138"
   style="fill:#ea282f;fill-opacity:1;stroke-width:1.47537" />
		<rect
   x="338.31445"
   y="-233.39729"
   class="st1"
   width="205.81413"
   height="26.409126"
   id="rect12140"
   style="fill:#ea282f;fill-opacity:1;stroke-width:1.47537" />
		<rect
   y="-180.57899"
   class="st1"
   width="387.72723"
   height="26.409126"
   id="rect12142"
   x="156.40131"
   style="fill:#ea282f;fill-opacity:1;stroke-width:1.47537" />
		<rect
   y="-127.61322"
   class="st1"
   width="387.72723"
   height="26.409126"
   id="rect12144"
   x="156.40131"
   style="fill:#ea282f;fill-opacity:1;stroke-width:1.47537" />
		<path
   class="st2"
   d="m 325.18364,-268.80615 -1.77044,-10.91773 c -0.59015,-3.54089 -1.91799,-6.49163 -3.09828,-6.49163 -1.1803,0 -1.91798,2.95074 -1.91798,6.49163 v 2.95074 c 0,3.54089 -2.95074,6.34408 -6.49163,6.34408 h -3.54089 v 7.96701 h 11.50789 c 2.95074,0.14753 5.45887,-2.21306 5.6064,-5.1638 -0.14753,-0.44261 -0.14753,-0.88522 -0.29507,-1.1803"
   id="path12146"
   style="fill:#1a226e;fill-opacity:1;stroke-width:1.47537" />
		<path
   class="st2"
   d="m 299.36466,-278.10098 h -35.99903 c -0.14753,0 -0.44261,0 -0.59015,0 v -1.77044 c 0,-3.54089 -0.88522,-6.49163 -1.91798,-6.49163 -1.03276,0 -2.50812,2.95074 -3.09828,6.34409 l -1.91797,11.06528 c -0.59015,2.95074 1.18029,5.75394 4.13103,6.34409 0.44261,0.14754 0.88522,0.14754 1.32783,0.14754 h 10.7702 c 1.03277,0 2.06553,-0.14754 3.09828,-0.59015 -0.29507,1.91798 -1.91798,3.24581 -3.83596,3.24581 h -15.19631 c -2.21306,0 -3.9835,-1.77044 -3.9835,-3.9835 0,0 0,0 0,0 0,-0.14754 0,-0.44261 0,-0.59014 l 1.47537,-9.1473 c 0.29507,-2.21305 -1.03276,-4.13104 -3.24582,-4.57365 0,0 0,0 0,0 -0.14753,0 -0.44261,0 -0.59015,0 h -75.39141 c -1.62291,0 -2.95074,0.88522 -3.54089,2.3606 l -14.31109,21.5404 c -0.29507,0.29507 -0.14754,0.88522 0,1.18029 l 2.8032,3.24582 c 0.29508,0.44261 0.88523,0.44261 1.32784,0.14754 l 9.5899,-7.52439 v 46.17908 c 0,2.21306 1.77045,3.9835 3.83597,3.9835 0,0 0,0 0.14753,0 h 21.39287 c 2.21305,0 3.9835,-1.77044 3.9835,-3.9835 v -16.08153 c 0,-2.21306 1.77044,-3.9835 3.9835,-3.9835 0,0 0,0 0,0 h 53.4084 c 2.21306,0 3.9835,1.77044 3.9835,3.9835 0,0 0,0 0,0 v 16.08153 c 0,2.21306 1.77044,3.9835 3.83596,3.9835 0,0 0,0 0.14754,0 h 21.39287 c 2.21305,0 3.98349,-1.77044 3.98349,-3.9835 v 0 -17.40937 h -11.36034 c -3.5409,0 -6.49163,-2.95073 -6.49163,-6.49163 0,0 0,0 0,0 v -11.06527 c 0,-2.06552 1.03275,-3.9835 2.65566,-5.16379 v 13.27833 c 0,3.54089 2.95075,6.49163 6.49163,6.49163 h 17.40937 c 3.54088,0 6.49163,-2.95074 6.49163,-6.49163 v -33.93351 c 0.14753,-3.5409 -2.65567,-6.3441 -6.19656,-6.3441"
   id="path12148"
   style="fill:#1a226e;fill-opacity:1;stroke-width:1.47537" />
	<g
   aria-label="Government Solutions"
   id="text15513"
   style="font-weight:bold;font-size:51.2045px;font-family:'Poppins ExtraBold';-inkscape-font-specification:'Poppins ExtraBold,  Bold';text-align:center;text-anchor:middle;fill:#ea282f;stroke:#ffffff;stroke-width:0"><path
     d="m 99.563402,56.611362 q -1.48493,-3.123475 -4.301177,-4.813223 -2.816248,-1.740953 -6.554176,-1.740953 -3.737929,0 -6.758994,1.740953 -2.969861,1.689748 -4.710814,4.915632 -1.689748,3.174678 -1.689748,7.373447 0,4.198769 1.689748,7.373448 1.740953,3.174679 4.710814,4.915632 3.021065,1.689748 6.758994,1.689748 5.222859,0 8.602356,-3.123474 3.379495,-3.123474 3.942745,-8.448742 H 87.0183 v -3.789133 h 19.20169 v 3.584315 q -0.40964,4.403587 -2.76505,8.09031 -2.3554,3.63552 -6.19574,5.786109 -3.840337,2.099384 -8.551151,2.099384 -4.966837,0 -9.063196,-2.304202 -4.09636,-2.355407 -6.502972,-6.502972 -2.355407,-4.147564 -2.355407,-9.370423 0,-5.222859 2.355407,-9.370423 2.406612,-4.198769 6.502972,-6.502971 4.096359,-2.355407 9.063196,-2.355407 5.683699,0 10.036081,2.816247 4.40359,2.816248 6.40056,7.936698 z"
     style="font-weight:normal;font-family:Poppins;-inkscape-font-specification:Poppins;fill:#000000"
     id="path53657" /><path
     d="m 124.6024,82.418429 q -3.94275,0 -7.16863,-1.792158 -3.17468,-1.792157 -5.01804,-5.069245 -1.79216,-3.328292 -1.79216,-7.680675 0,-4.301178 1.84336,-7.578266 1.89457,-3.328292 5.12045,-5.069245 3.22588,-1.792157 7.21983,-1.792157 3.99395,0 7.21984,1.792157 3.22588,1.740953 5.06924,5.018041 1.89457,3.277088 1.89457,7.62947 0,4.352383 -1.94577,7.680675 -1.89457,3.277088 -5.17166,5.069245 -3.27708,1.792158 -7.27103,1.792158 z m 0,-4.09636 q 2.50902,0 4.71081,-1.177704 2.20179,-1.177703 3.53311,-3.53311 1.38252,-2.355407 1.38252,-5.734904 0,-3.379497 -1.33132,-5.734904 -1.33131,-2.355407 -3.4819,-3.481906 -2.15059,-1.177703 -4.65961,-1.177703 -2.56023,0 -4.71081,1.177703 -2.09939,1.126499 -3.3795,3.481906 -1.28011,2.355407 -1.28011,5.734904 0,3.430702 1.2289,5.786108 1.28012,2.355407 3.3795,3.533111 2.09939,1.126499 4.60841,1.126499 z"
     style="font-weight:normal;font-family:Poppins;-inkscape-font-specification:Poppins;fill:#000000"
     id="path53659" /><path
     d="m 155.58109,77.65641 8.70476,-23.758887 h 4.96684 l -11.00897,28.060065 h -5.42768 L 141.80708,53.897523 h 5.01804 z"
     style="font-weight:normal;font-family:Poppins;-inkscape-font-specification:Poppins;fill:#000000"
     id="path53661" /><path
     d="m 199.46329,66.852261 q 0,1.331317 -0.15362,2.816248 H 176.8821 q 0.25603,4.147564 2.81625,6.502971 2.61143,2.304202 6.29815,2.304202 3.02107,0 5.01804,-1.382521 2.04818,-1.433726 2.86746,-3.789133 h 5.01804 q -1.1265,4.045155 -4.506,6.60538 -3.3795,2.509021 -8.39754,2.509021 -3.99395,0 -7.16863,-1.792158 -3.12347,-1.792157 -4.91563,-5.069245 -1.79216,-3.328292 -1.79216,-7.680675 0,-4.352382 1.74096,-7.62947 1.74095,-3.277088 4.86443,-5.018041 3.17467,-1.792157 7.27103,-1.792157 3.99395,0 7.06622,1.740953 3.07227,1.740953 4.71082,4.813222 1.68975,3.021066 1.68975,6.861403 z m -4.81323,-0.972885 q 0,-2.662634 -1.1777,-4.557201 -1.1777,-1.945771 -3.22588,-2.918656 -1.99698,-1.02409 -4.45479,-1.02409 -3.53311,0 -6.04213,2.252998 -2.45782,2.252998 -2.81625,6.246949 z"
     style="font-weight:normal;font-family:Poppins;-inkscape-font-specification:Poppins;fill:#000000"
     id="path53663" /><path
     d="m 210.26737,58.454723 q 1.22891,-2.406611 3.48191,-3.737928 2.3042,-1.331317 5.58129,-1.331317 v 4.813223 h -1.22891 q -7.83429,0 -7.83429,8.499947 v 15.25894 h -4.65961 V 53.897523 h 4.65961 z"
     style="font-weight:normal;font-family:Poppins;-inkscape-font-specification:Poppins;fill:#000000"
     id="path53665" /><path
     d="m 238.37861,53.385478 q 5.12045,0 8.29513,3.123475 3.17468,3.072269 3.17468,8.909582 v 16.539053 h -4.60841 V 66.084194 q 0,-4.198769 -2.09938,-6.400563 -2.09939,-2.252997 -5.73491,-2.252997 -3.68672,0 -5.88851,2.304202 -2.15059,2.304202 -2.15059,6.707789 v 15.514963 h -4.65961 V 53.897523 h 4.65961 v 3.993951 q 1.38252,-2.150589 3.73793,-3.328292 2.40661,-1.177704 5.27406,-1.177704 z"
     style="font-weight:normal;font-family:Poppins;-inkscape-font-specification:Poppins;fill:#000000"
     id="path53667" /><path
     d="m 291.22162,53.385478 q 3.27708,0 5.83731,1.382522 2.56022,1.331317 4.04515,4.045155 1.48493,2.713838 1.48493,6.60538 v 16.539053 h -4.6084 V 66.084194 q 0,-4.198769 -2.09938,-6.400563 -2.04818,-2.252997 -5.5813,-2.252997 -3.63551,0 -5.7861,2.355406 -2.15059,2.304203 -2.15059,6.70779 v 15.463758 h -4.60841 V 66.084194 q 0,-4.198769 -2.09938,-6.400563 -2.04818,-2.252997 -5.58129,-2.252997 -3.63552,0 -5.78611,2.355406 -2.15059,2.304203 -2.15059,6.70779 v 15.463758 h -4.65961 V 53.897523 h 4.65961 v 4.045155 q 1.38252,-2.201793 3.68672,-3.379496 2.35541,-1.177704 5.17166,-1.177704 3.53311,0 6.24695,1.58734 2.71384,1.587339 4.04515,4.659609 1.17771,-2.969861 3.89155,-4.608405 2.71383,-1.638544 6.04213,-1.638544 z"
     style="font-weight:normal;font-family:Poppins;-inkscape-font-specification:Poppins;fill:#000000"
     id="path53669" /><path
     d="m 335.82067,66.852261 q 0,1.331317 -0.15361,2.816248 h -22.42757 q 0.25602,4.147564 2.81624,6.502971 2.61143,2.304202 6.29816,2.304202 3.02106,0 5.01804,-1.382521 2.04818,-1.433726 2.86745,-3.789133 h 5.01804 q -1.1265,4.045155 -4.50599,6.60538 -3.3795,2.509021 -8.39754,2.509021 -3.99395,0 -7.16863,-1.792158 -3.12348,-1.792157 -4.91563,-5.069245 -1.79216,-3.328292 -1.79216,-7.680675 0,-4.352382 1.74095,-7.62947 1.74095,-3.277088 4.86443,-5.018041 3.17468,-1.792157 7.27104,-1.792157 3.99395,0 7.06622,1.740953 3.07227,1.740953 4.71081,4.813222 1.68975,3.021066 1.68975,6.861403 z m -4.81322,-0.972885 q 0,-2.662634 -1.17771,-4.557201 -1.1777,-1.945771 -3.22588,-2.918656 -1.99697,-1.02409 -4.45479,-1.02409 -3.53311,0 -6.04213,2.252998 -2.45782,2.252998 -2.81625,6.246949 z"
     style="font-weight:normal;font-family:Poppins;-inkscape-font-specification:Poppins;fill:#000000"
     id="path53671" /><path
     d="m 355.63677,53.385478 q 5.12045,0 8.29513,3.123475 3.17468,3.072269 3.17468,8.909582 v 16.539053 h -4.6084 V 66.084194 q 0,-4.198769 -2.09939,-6.400563 -2.09938,-2.252997 -5.7349,-2.252997 -3.68673,0 -5.88852,2.304202 -2.15059,2.304202 -2.15059,6.707789 v 15.514963 h -4.65961 V 53.897523 h 4.65961 v 3.993951 q 1.38252,-2.150589 3.73793,-3.328292 2.40661,-1.177704 5.27406,-1.177704 z"
     style="font-weight:normal;font-family:Poppins;-inkscape-font-specification:Poppins;fill:#000000"
     id="path53673" /><path
     d="m 380.41971,57.737861 v 16.539052 q 0,2.04818 0.87048,2.918657 0.87048,0.819272 3.02107,0.819272 h 3.4307 v 3.942746 h -4.19877 q -3.89154,0 -5.83731,-1.792157 -1.94578,-1.792158 -1.94578,-5.888518 V 57.737861 h -3.63551 v -3.840338 h 3.63551 v -7.066221 h 4.65961 v 7.066221 h 7.32225 v 3.840338 z"
     style="font-weight:normal;font-family:Poppins;-inkscape-font-specification:Poppins;fill:#000000"
     id="path53675" /><path
     d="m 418.36205,82.31602 q -3.53311,0 -6.34935,-1.228908 -2.76505,-1.280113 -4.35239,-3.481906 -1.58734,-2.252998 -1.63854,-5.171654 h 4.96684 q 0.25602,2.50902 2.04818,4.249973 1.84336,1.689748 5.32526,1.689748 3.3283,0 5.22286,-1.638544 1.94577,-1.689748 1.94577,-4.301177 0,-2.04818 -1.1265,-3.328293 -1.12649,-1.280112 -2.81624,-1.945771 -1.68975,-0.665658 -4.5572,-1.433726 -3.53311,-0.921681 -5.6837,-1.843362 -2.09939,-0.921681 -3.63552,-2.867452 -1.48493,-1.996975 -1.48493,-5.325267 0,-2.918657 1.48493,-5.171655 1.48493,-2.252998 4.14756,-3.481906 2.71384,-1.228908 6.19575,-1.228908 5.01804,0 8.19272,2.509021 3.22588,2.50902 3.63552,6.656585 h -5.12045 q -0.25603,-2.04818 -2.15059,-3.584315 -1.89457,-1.58734 -5.01804,-1.58734 -2.91866,0 -4.76202,1.536135 -1.84336,1.484931 -1.84336,4.198769 0,1.945771 1.07529,3.174679 1.1265,1.228908 2.71384,1.894566 1.63854,0.614454 4.5572,1.433726 3.53311,0.972886 5.6837,1.945771 2.15059,0.921681 3.68672,2.918657 1.53614,1.945771 1.53614,5.325268 0,2.611429 -1.38252,4.915631 -1.38253,2.304203 -4.09636,3.737929 -2.71384,1.433726 -6.40057,1.433726 z"
     style="font-weight:normal;font-family:Poppins;-inkscape-font-specification:Poppins;fill:#000000"
     id="path53677" /><path
     d="m 449.34077,82.418429 q -3.94274,0 -7.16863,-1.792158 -3.17468,-1.792157 -5.01804,-5.069245 -1.79216,-3.328292 -1.79216,-7.680675 0,-4.301178 1.84337,-7.578266 1.89456,-3.328292 5.12045,-5.069245 3.22588,-1.792157 7.21983,-1.792157 3.99395,0 7.21983,1.792157 3.22589,1.740953 5.06925,5.018041 1.89457,3.277088 1.89457,7.62947 0,4.352383 -1.94577,7.680675 -1.89457,3.277088 -5.17166,5.069245 -3.27709,1.792158 -7.27104,1.792158 z m 0,-4.09636 q 2.50902,0 4.71082,-1.177704 2.20179,-1.177703 3.53311,-3.53311 1.38252,-2.355407 1.38252,-5.734904 0,-3.379497 -1.33132,-5.734904 -1.33132,-2.355407 -3.4819,-3.481906 -2.15059,-1.177703 -4.65961,-1.177703 -2.56023,0 -4.71082,1.177703 -2.09938,1.126499 -3.37949,3.481906 -1.28012,2.355407 -1.28012,5.734904 0,3.430702 1.22891,5.786108 1.28011,2.355407 3.3795,3.533111 2.09938,1.126499 4.6084,1.126499 z"
     style="font-weight:normal;font-family:Poppins;-inkscape-font-specification:Poppins;fill:#000000"
     id="path53679" /><path
     d="m 474.53338,44.066259 v 37.891329 h -4.65961 V 44.066259 Z"
     style="font-weight:normal;font-family:Poppins;-inkscape-font-specification:Poppins;fill:#000000"
     id="path53681" /><path
     d="m 507.35538,53.897523 v 28.060065 h -4.65961 v -4.147564 q -1.33132,2.150589 -3.73793,3.379497 -2.35541,1.177703 -5.22286,1.177703 -3.27708,0 -5.88851,-1.331317 -2.61143,-1.382521 -4.14757,-4.09636 -1.48493,-2.713838 -1.48493,-6.60538 V 53.897523 h 4.60841 v 15.82219 q 0,4.147564 2.09938,6.400562 2.09938,2.201794 5.7349,2.201794 3.73793,0 5.88852,-2.304203 2.15059,-2.304202 2.15059,-6.707789 V 53.897523 Z"
     style="font-weight:normal;font-family:Poppins;-inkscape-font-specification:Poppins;fill:#000000"
     id="path53683" /><path
     d="m 520.92454,57.737861 v 16.539052 q 0,2.04818 0.87047,2.918657 0.87048,0.819272 3.02107,0.819272 h 3.4307 v 3.942746 h -4.19877 q -3.89154,0 -5.83731,-1.792157 -1.94577,-1.792158 -1.94577,-5.888518 V 57.737861 h -3.63552 v -3.840338 h 3.63552 v -7.066221 h 4.65961 v 7.066221 h 7.32224 v 3.840338 z"
     style="font-weight:normal;font-family:Poppins;-inkscape-font-specification:Poppins;fill:#000000"
     id="path53685" /><path
     d="m 536.28578,49.340323 q -1.33131,0 -2.25299,-0.921681 -0.92168,-0.921681 -0.92168,-2.252998 0,-1.331317 0.92168,-2.252998 0.92168,-0.921681 2.25299,-0.921681 1.28012,0 2.15059,0.921681 0.92168,0.921681 0.92168,2.252998 0,1.331317 -0.92168,2.252998 -0.87047,0.921681 -2.15059,0.921681 z m 2.253,4.5572 v 28.060065 h -4.65961 V 53.897523 Z"
     style="font-weight:normal;font-family:Poppins;-inkscape-font-specification:Poppins;fill:#000000"
     id="path53687" /><path
     d="m 558.71327,82.418429 q -3.94275,0 -7.16863,-1.792158 -3.17468,-1.792157 -5.01804,-5.069245 -1.79216,-3.328292 -1.79216,-7.680675 0,-4.301178 1.84336,-7.578266 1.89457,-3.328292 5.12045,-5.069245 3.22589,-1.792157 7.21984,-1.792157 3.99395,0 7.21983,1.792157 3.22589,1.740953 5.06925,5.018041 1.89456,3.277088 1.89456,7.62947 0,4.352383 -1.94577,7.680675 -1.89456,3.277088 -5.17165,5.069245 -3.27709,1.792158 -7.27104,1.792158 z m 0,-4.09636 q 2.50902,0 4.71081,-1.177704 2.2018,-1.177703 3.53311,-3.53311 1.38253,-2.355407 1.38253,-5.734904 0,-3.379497 -1.33132,-5.734904 -1.33132,-2.355407 -3.48191,-3.481906 -2.15059,-1.177703 -4.65961,-1.177703 -2.56022,0 -4.71081,1.177703 -2.09938,1.126499 -3.3795,3.481906 -1.28011,2.355407 -1.28011,5.734904 0,3.430702 1.22891,5.786108 1.28011,2.355407 3.3795,3.533111 2.09938,1.126499 4.6084,1.126499 z"
     style="font-weight:normal;font-family:Poppins;-inkscape-font-specification:Poppins;fill:#000000"
     id="path53689" /><path
     d="m 592.91787,53.385478 q 5.12045,0 8.29513,3.123475 3.17468,3.072269 3.17468,8.909582 v 16.539053 h -4.60841 V 66.084194 q 0,-4.198769 -2.09938,-6.400563 -2.09939,-2.252997 -5.73491,-2.252997 -3.68672,0 -5.88851,2.304202 -2.15059,2.304202 -2.15059,6.707789 v 15.514963 h -4.65961 V 53.897523 h 4.65961 v 3.993951 q 1.38252,-2.150589 3.73793,-3.328292 2.40661,-1.177704 5.27406,-1.177704 z"
     style="font-weight:normal;font-family:Poppins;-inkscape-font-specification:Poppins;fill:#000000"
     id="path53691" /><path
     d="m 621.95079,82.418429 q -3.22589,0 -5.78611,-1.075295 -2.56023,-1.126499 -4.04516,-3.07227 -1.48493,-1.996975 -1.63854,-4.5572 h 4.81322 q 0.20482,2.099384 1.94577,3.430701 1.79216,1.331317 4.65961,1.331317 2.66263,0 4.19877,-1.177703 1.53613,-1.177704 1.53613,-2.969861 0,-1.843362 -1.63854,-2.713838 -1.63854,-0.921681 -5.06924,-1.792158 -3.12348,-0.819272 -5.12045,-1.638544 -1.94578,-0.870476 -3.3795,-2.50902 -1.38252,-1.689749 -1.38252,-4.403587 0,-2.150589 1.28011,-3.942746 1.28011,-1.792158 3.63552,-2.816248 2.35541,-1.075294 5.37647,-1.075294 4.65961,0 7.52706,2.355407 2.86745,2.355406 3.07227,6.451766 h -4.65961 q -0.15361,-2.201793 -1.79215,-3.53311 -1.58734,-1.331317 -4.30118,-1.331317 -2.50902,0 -3.99395,1.075294 -1.48493,1.075295 -1.48493,2.816248 0,1.382521 0.87047,2.304202 0.92168,0.870477 2.253,1.433726 1.38252,0.512045 3.78913,1.177704 3.02107,0.819272 4.91564,1.638544 1.89456,0.768067 3.22588,2.355407 1.38252,1.587339 1.43372,4.147564 0,2.304202 -1.28011,4.147564 -1.28011,1.843362 -3.63552,2.918657 -2.3042,1.02409 -5.32526,1.02409 z"
     style="font-weight:normal;font-family:Poppins;-inkscape-font-specification:Poppins;fill:#000000"
     id="path53693" /></g></g>
</g><path
       style="opacity:1;fill:#f9f9f9;stroke:#856f00;stroke-width:0"
       d="m 103.39687,65.420557 v 6.9874 h 54.45499 v -6.9874 z"
       id="path1" /><path
       style="opacity:1;fill:#f9f9f9;stroke:#856f00;stroke-width:0"
       d="m 103.39687,79.395373 v 6.987425 h 54.45497 l 2e-5,-6.987425 z"
       id="path2" /><path
       style="opacity:1;fill:#f9f9f9;stroke:#856f00;stroke-width:0"
       d="m 55.265681,93.370214 v 7.026446 H 157.85184 v -7.026446 z"
       id="path3" /></g><style
     type="text/css"
     id="style12108">
	.st0{fill:#59595B;}
	.st1{fill:#F15354;}
	.st2{fill:#0575A7;}
</style></svg>
