<?xml version="1.0" encoding="UTF-8"?>
<svg id="Layer_1" xmlns="http://www.w3.org/2000/svg" version="1.1" viewBox="0 0 100 100">
  <!-- Generator: Adobe Illustrator 30.3.0, SVG Export Plug-In . SVG Version: 2.1.3 Build 182)  -->
  <defs>
    <style>
      .st0 {
        fill: #f7f8fa;
      }

      .st1 {
        fill: #ea2630;
      }

      .st2 {
        fill: #19226d;
      }
    </style>
  </defs>
  <rect class="st0" width="100" height="100"/>
  <g>
    <rect class="st1" x="47.602" y="30.464" width="41.337" height="5.304"/>
    <rect class="st1" x="47.602" y="41.073" width="41.337" height="5.304"/>
    <rect class="st1" x="11.066" y="51.681" width="77.873" height="5.304"/>
    <rect class="st1" x="11.066" y="62.319" width="77.873" height="5.304"/>
    <path class="st2" d="M44.609,31.709c-.119-.711-.385-1.304-.622-1.304s-.385.593-.385,1.304v.593c0,.711-.593,1.274-1.304,1.274h-.711v1.6h2.311c.593,0,1.096-.444,1.126-1.037,0-.089-.415-2.43-.415-2.43Z"/>
    <path class="st2" d="M39.779,32.035h-7.349v-.356c0-.711-.178-1.304-.385-1.304s-.504.593-.622,1.274l-.385,2.222c-.119.593.237,1.156.83,1.274.089.03.178.03.267.03h2.163c.207,0,.415-.03.622-.119-.059.385-.385.652-.77.652h-3.052c-.444,0-.8-.356-.8-.8h0v-.119l.296-1.837c.059-.444-.207-.83-.652-.919h-15.26c-.326,0-.593.207-.711.504l-2.874,4.356c-.059.059-.03.178,0,.237l.563.652c.059.089.178.089.267.03l1.926-1.511v9.275c0,.444.356.8.77.8h4.326c.444,0,.8-.356.8-.8v-3.23c0-.444.356-.8.8-.8h10.727c.444,0,.8.356.8.8h0v3.23c0,.444.356.8.77.8h4.326c.444,0,.8-.356.8-.8h0v-3.497h-2.282c-.711,0-1.304-.593-1.304-1.304h0v-2.222c0-.415.207-.8.533-1.037v2.667c0,.711.593,1.304,1.304,1.304h3.497c.711,0,1.304-.593,1.304-1.304v-6.845c0-.711-.533-1.304-1.245-1.304h0Z"/>
  </g>
</svg>