<?xml version="1.0" encoding="UTF-8"?>
<svg id="Layer_1" xmlns="http://www.w3.org/2000/svg" version="1.1" viewBox="0 0 100 100">
  <!-- Generator: Adobe Illustrator 30.3.0, SVG Export Plug-In . SVG Version: 2.1.3 Build 182)  -->
  <defs>
    <style>
      .csr-st0 {
        fill: #f7f8fa;
      }

      .csr-st1 {
        fill: #fff;
      }

      .csr-st2 {
        fill: #ea2630;
      }

      .csr-st3 {
        fill: #192072;
      }
    </style>
  </defs>
  <rect class="csr-st0" width="100" height="100"/>
  <path class="csr-st3" d="M76.778,28.945h-.004l-7.618-7.618s-4.54,1.923-10.234,1.23c-5.695-.693-8.924-4.54-8.924-4.54,0,0-3.234,3.847-8.924,4.54-5.695.693-10.234-1.23-10.234-1.23l-7.618,7.618s3.078,4.531,2.541,11.389h48.475c-.609-6.858,2.541-11.389,2.541-11.389h-.001Z"/>
  <g>
    <path class="csr-st1" d="M64.776,74.702c1.577-1.026,3.114-2.221,4.517-3.651v-30.72h-4.517v34.372h0Z"/>
    <path class="csr-st2" d="M74.237,40.33h-4.939v30.72c3.927-3.989,6.841-9.755,6.841-18.518,0-4.095-.782-8.351-1.901-12.202h0Z"/>
    <path class="csr-st2" d="M57.936,78.242c2.194-.928,4.557-2.052,6.841-3.536v-34.376h-6.841v37.912Z"/>
    <path class="csr-st2" d="M46.577,80.072c1.417.582,2.603,1.328,3.42,1.91.817-.582,1.999-1.328,3.42-1.91v-39.742h-6.841v39.742h0Z"/>
    <path class="csr-st2" d="M35.219,74.702c2.279,1.484,4.646,2.607,6.841,3.536v-37.908h-6.841s0,34.372,0,34.372Z"/>
    <path class="csr-st2" d="M23.861,52.532c0,8.764,2.914,14.534,6.841,18.518v-30.72h-4.939c-1.115,3.851-1.901,8.107-1.901,12.202h0Z"/>
    <path class="csr-st1" d="M53.418,80.072c1.333-.546,2.878-1.137,4.517-1.835v-37.908h-4.517v39.742h0Z"/>
    <path class="csr-st1" d="M42.06,78.242c1.639.693,3.185,1.284,4.517,1.835v-39.747h-4.517s0,37.912,0,37.912Z"/>
    <path class="csr-st1" d="M30.702,71.055c1.404,1.426,2.941,2.625,4.517,3.651v-34.376h-4.517s0,30.725,0,30.725Z"/>
  </g>
  <g>
    <g>
      <path class="csr-st1" d="M64.753,25.834c-.105-.63-.341-1.155-.551-1.155s-.341.525-.341,1.155v.525c0,.63-.525,1.129-1.155,1.129h-.63v1.418h2.048c.525,0,.971-.394.998-.919,0-.079-.368-2.153-.368-2.153h0Z"/>
      <path class="csr-st1" d="M60.474,26.123h-6.511v-.315c0-.63-.158-1.155-.341-1.155s-.446.525-.551,1.129l-.341,1.969c-.105.525.21,1.024.735,1.129.079.026.158.026.236.026h1.916c.184,0,.368-.026.551-.105-.053.341-.341.578-.683.578h-2.704c-.394,0-.709-.315-.709-.709h0v-.105l.263-1.628c.053-.394-.184-.735-.578-.814h-13.52c-.289,0-.525.184-.63.446l-2.547,3.859c-.053.053-.026.158,0,.21l.499.578c.053.079.158.079.236.026l1.706-1.339v8.217c0,.394.315.709.683.709h3.833c.394,0,.709-.315.709-.709v-2.862c0-.394.315-.709.709-.709h9.504c.394,0,.709.315.709.709h0v2.862c0,.394.315.709.683.709h3.833c.394,0,.709-.315.709-.709h0v-3.098h-2.021c-.63,0-1.155-.525-1.155-1.155h0v-1.969c0-.368.184-.709.473-.919v2.363c0,.63.525,1.155,1.155,1.155h3.098c.63,0,1.155-.525,1.155-1.155v-6.064c0-.63-.473-1.155-1.103-1.155h0Z"/>
    </g>
    <path class="csr-st1" d="M65.283,25.392c0-.515.382-.737.737-.737s.737.222.737.737-.382.724-.737.724-.737-.222-.737-.724ZM66.584,25.392c0-.409-.262-.577-.551-.577s-.564.173-.564.577.275.577.564.577c.289-.013.551-.182.551-.577ZM66.046,25.023c.133,0,.262.04.262.222,0,.107-.08.173-.173.195l.173.302h-.16l-.16-.289h-.067v.289h-.147v-.719h.272ZM66.047,25.351c.067,0,.12-.035.12-.102,0-.08-.067-.093-.12-.093h-.133v.195h.133Z"/>
  </g>
</svg>