<?xml version="1.0" encoding="UTF-8" standalone="no"?>
<!-- Created with Inkscape (http://www.inkscape.org/) -->

<svg
   width="317.09326mm"
   height="96.289536mm"
   viewBox="0 0 317.09326 96.289536"
   version="1.1"
   id="svg7199"
   xmlns:inkscape="http://www.inkscape.org/namespaces/inkscape"
   xmlns:sodipodi="http://sodipodi.sourceforge.net/DTD/sodipodi-0.dtd"
   xmlns="http://www.w3.org/2000/svg"
   xmlns:svg="http://www.w3.org/2000/svg">
  <sodipodi:namedview
     id="namedview7201"
     pagecolor="#ffffff"
     bordercolor="#000000"
     borderopacity="0.25"
     inkscape:showpageshadow="2"
     inkscape:pageopacity="0.0"
     inkscape:pagecheckerboard="0"
     inkscape:deskcolor="#d1d1d1"
     inkscape:document-units="mm"
     showgrid="false" />
  <defs
     id="defs7196" />
  <g
     inkscape:label="Layer 1"
     inkscape:groupmode="layer"
     id="layer1">
    <g
       id="Layer_2"
       data-name="Layer 2"
       transform="matrix(0.26458333,0,0,0.26458333,0.00167437,0.00414195)">
      <g
         id="Layer_1-2"
         data-name="Layer 1">
        <path
           class="cls-1"
           d="m 149.27,355.87 c -8.29,-4.1 -16.94,-7.4 -26.1,-10.89 C 90,332.36 52.49,318.06 24.23,260.9 3.69,219.34 11,188.4 17.4,161.1 23.21,136.44 27.8,116.96 11.74,91.24 l -6.19,-9.91 53.07,-51.88 8.56,3.08 a 99.48,99.48 0 0 0 32.76,5.86 c 19,0 34.08,-6.31 44.73,-18.76 l 11,-12.92 11,12.92 c 10.65,12.45 25.7,18.76 44.73,18.76 a 99.48,99.48 0 0 0 32.76,-5.86 l 8.56,-3.08 53.07,51.88 -6.19,9.91 c -15.98,25.76 -11.4,45.2 -5.6,69.86 6.43,27.3 13.72,58.24 -6.82,99.8 -28.26,57.16 -65.81,71.46 -98.94,84.08 -9.16,3.49 -17.81,6.79 -26.1,10.89 l -6.44,3.18 z"
           id="path7153"
           style="fill:none;stroke:#0375a8;stroke-width:8.72px;stroke-miterlimit:10" />
        <path
           class="cls-2"
           d="m 194.45,327 c 11.9,-4.74 23.8,-10.18 35.29,-18.24 V 140.25 h -35.29 z"
           id="path7155"
           style="fill:#f05455" />
        <path
           class="cls-2"
           d="m 81.6,308.7 c 11.48,8.07 23.4,13.52 35.29,18.3 V 140.25 H 81.6 Z"
           id="path7157"
           style="fill:#f05455" />
        <path
           class="cls-2"
           d="m 250.87,289.89 c 8.23,-9.27 16.06,-20.79 23.3,-35.43 23.95,-48.45 5.33,-80.39 0.85,-114.21 h -24.15 z"
           id="path7159"
           style="fill:#f05455" />
        <path
           class="cls-2"
           d="M 60.46,140.25 H 36.4 c -4.48,33.82 -23.1,65.76 0.85,114.21 7.22,14.59 15,26.08 23.21,35.33 z"
           id="path7161"
           style="fill:#f05455" />
        <path
           class="cls-2"
           d="M 173.31,335.18 V 140.25 H 138 v 194.89 c 6,2.36 11.9,4.84 17.69,7.7 5.79,-2.84 11.67,-5.32 17.62,-7.66 z"
           id="path7163"
           style="fill:#f05455" />
        <path
           class="cls-3"
           d="M 36.4,140.25 H 275 c -2.32,-17.54 -0.85,-35.58 12.34,-56.7 L 249.15,46.2 C 223.65,55.38 181.78,59.56 155.71,29.06 129.64,59.56 87.77,55.38 62.26,46.2 l -38.2,37.35 c 13.19,21.12 14.66,39.16 12.34,56.7 z"
           id="path7165"
           style="fill:#0375a8" />
        <path
           class="cls-4"
           d="M 229.79,76.59 228.18,67 c -0.51,-3.1 -1.72,-5.64 -2.68,-5.64 -0.96,0 -1.74,2.57 -1.74,5.71 v 2.53 a 5.73,5.73 0 0 1 -5.71,5.71 H 215 v 6.94 h 0.54 9.46 a 4.69,4.69 0 0 0 4.77,-5.64"
           id="path7167"
           style="fill:#ffffff" />
        <path
           class="cls-4"
           d="m 207,68.43 h -15.4 -0.37 -15.77 a 4.9,4.9 0 0 0 -0.54,0 V 67 c 0,-3.14 -0.78,-5.7 -1.74,-5.7 -0.96,0 -2.18,2.55 -2.68,5.7 l -1.61,9.64 a 4.69,4.69 0 0 0 4.77,5.64 h 9.49 a 8.9,8.9 0 0 0 2.71,-0.42 3.49,3.49 0 0 1 -3.43,2.84 h -13.31 a 3.49,3.49 0 0 1 -3.44,-4.06 L 167,72.51 a 3.48,3.48 0 0 0 -3.44,-4.06 H 97.35 a 3.49,3.49 0 0 0 -3.18,2 l -12.47,19 a 0.86,0.86 0 0 0 0.06,1 l 2.42,2.86 a 0.86,0.86 0 0 0 1.2,0.12 l 8.48,-6.69 v 40.61 a 3.48,3.48 0 0 0 3.49,3.48 h 18.8 a 3.48,3.48 0 0 0 3.49,-3.48 v -14.07 a 3.48,3.48 0 0 1 3.48,-3.48 h 46.95 a 3.48,3.48 0 0 1 3.49,3.48 v 14.13 a 3.48,3.48 0 0 0 3.49,3.48 h 18.8 a 3.48,3.48 0 0 0 3.49,-3.48 v -15.2 h -10 a 5.73,5.73 0 0 1 -5.71,-5.71 v -9.77 a 5.72,5.72 0 0 1 2.29,-4.56 v 11.66 a 5.73,5.73 0 0 0 5.71,5.71 H 207 a 5.72,5.72 0 0 0 5.7,-5.71 V 74.14 A 5.72,5.72 0 0 0 207,68.43"
           id="path7169"
           style="fill:#ffffff" />
      </g>
    </g>
    <text
       xml:space="preserve"
       style="font-size:50.8px;font-family:Nasalization;-inkscape-font-specification:Nasalization;fill:#000000;stroke-width:0.264583"
       x="86.512398"
       y="67.947556"
       id="text7262"><tspan
         sodipodi:role="line"
         id="tspan7260"
         style="stroke-width:0.264583"
         x="86.512398"
         y="67.947556">C<tspan
   style="fill:#f05455;fill-opacity:1"
   id="tspan7264">A</tspan>RBIDE</tspan></text>
  </g>
</svg>
