<?xml version="1.0" encoding="UTF-8" standalone="no"?>
<!-- Created with Inkscape (http://www.inkscape.org/) -->

<svg
   width="15.230474mm"
   height="18.151846mm"
   viewBox="0 0 15.230475 18.151846"
   version="1.1"
   id="svg5"
   xml:space="preserve"
   sodipodi:docname="carbide-logo.svg"
   inkscape:version="1.4 (e7c3feb1, 2024-10-09)"
   inkscape:export-filename="carbide-logo.svg"
   inkscape:export-xdpi="96"
   inkscape:export-ydpi="96"
   xmlns:inkscape="http://www.inkscape.org/namespaces/inkscape"
   xmlns:sodipodi="http://sodipodi.sourceforge.net/DTD/sodipodi-0.dtd"
   xmlns="http://www.w3.org/2000/svg"
   xmlns:svg="http://www.w3.org/2000/svg"><sodipodi:namedview
     id="namedview7"
     pagecolor="#ffffff"
     bordercolor="#000000"
     borderopacity="0.25"
     inkscape:showpageshadow="2"
     inkscape:pageopacity="0.0"
     inkscape:pagecheckerboard="0"
     inkscape:deskcolor="#d1d1d1"
     inkscape:document-units="mm"
     showgrid="false"
     inkscape:zoom="12.603863"
     inkscape:cx="9.0448463"
     inkscape:cy="46.771376"
     inkscape:window-width="1920"
     inkscape:window-height="1142"
     inkscape:window-x="1920"
     inkscape:window-y="30"
     inkscape:window-maximized="0"
     inkscape:current-layer="Layer_1-2"><inkscape:page
       x="1.5698454e-22"
       y="0"
       width="15.230474"
       height="18.151846"
       id="page2"
       margin="0"
       bleed="0" /></sodipodi:namedview><defs
     id="defs2"><style
       id="style4808">.cls-1{fill:none;stroke:#0375a8;stroke-miterlimit:10;stroke-width:8.72px;}.cls-2{fill:#f05455;}.cls-3{fill:#0375a8;}.cls-4{fill:#fff;}</style></defs><g
     inkscape:label="Layer 1"
     inkscape:groupmode="layer"
     id="layer1"
     transform="translate(-31.006551,-154.20552)"><g
       id="g1251"
       transform="matrix(0.26458333,0,0,0.26458333,23.510443,136.5276)"><g
         id="padding"
         class="st0">
	<path
   class="st1"
   d="m 118.37,-0.13 h 9.41 c 4.47,0 7.48,2.17 7.48,6.36 0,3.42 -2.33,5.48 -4.6,6.19 0.68,0.58 1.18,1.35 1.59,2.17 0.95,1.93 1.59,4.06 3.59,4.06 0.51,0 0.91,-0.17 0.91,-0.17 l -0.44,4.03 c 0,0 -1.22,0.3 -2.27,0.3 -2.71,0 -4.26,-1.05 -5.85,-4.67 -0.68,-1.62 -1.62,-4.47 -2.88,-4.47 h -1.29 v 9.03 h -5.65 V -0.13 m 5.65,4.09 v 5.62 h 2.03 c 1.62,0 3.52,-0.51 3.52,-2.94 0,-2 -1.29,-2.67 -2.84,-2.67 h -2.71 z"
   id="path1172" />
	<g
   class="st1"
   id="g1178">
		<path
   d="m 0,54.39 v -9.41 c 0,-4.47 2.17,-7.48 6.36,-7.48 3.42,0 5.48,2.33 6.19,4.6 0.58,-0.68 1.35,-1.18 2.17,-1.59 1.93,-0.95 4.06,-1.59 4.06,-3.59 0,-0.51 -0.17,-0.91 -0.17,-0.91 l 4.03,0.44 c 0,0 0.3,1.22 0.3,2.27 0,2.71 -1.05,4.26 -4.67,5.85 -1.62,0.68 -4.47,1.62 -4.47,2.88 v 1.29 h 9.03 v 5.65 H 0 m 4.09,-5.65 h 5.62 v -2.03 c 0,-1.62 -0.51,-3.52 -2.94,-3.52 -2,0 -2.67,1.29 -2.67,2.84 v 2.71 z"
   id="path1174" />
		<path
   d="m 232.18,54.39 v -9.41 c 0,-4.47 2.17,-7.48 6.36,-7.48 3.42,0 5.48,2.33 6.19,4.6 0.58,-0.68 1.35,-1.18 2.17,-1.59 1.93,-0.95 4.06,-1.59 4.06,-3.59 0,-0.51 -0.17,-0.91 -0.17,-0.91 l 4.03,0.44 c 0,0 0.3,1.22 0.3,2.27 0,2.71 -1.05,4.26 -4.67,5.85 -1.62,0.68 -4.47,1.62 -4.47,2.88 v 1.29 h 9.03 v 5.65 h -22.83 m 4.09,-5.65 h 5.62 v -2.03 c 0,-1.62 -0.51,-3.52 -2.94,-3.52 -2,0 -2.67,1.29 -2.67,2.84 v 2.71 z"
   id="path1176" />
	</g>
	<path
   class="st1"
   d="m 118.37,67.7 h 9.41 c 4.47,0 7.48,2.17 7.48,6.36 0,3.42 -2.33,5.48 -4.6,6.19 0.68,0.58 1.18,1.35 1.59,2.17 0.95,1.93 1.59,4.06 3.59,4.06 0.51,0 0.91,-0.17 0.91,-0.17 l -0.44,4.03 c 0,0 -1.22,0.3 -2.27,0.3 -2.71,0 -4.26,-1.05 -5.85,-4.67 -0.68,-1.62 -1.62,-4.47 -2.88,-4.47 h -1.29 v 9.03 h -5.65 V 67.7 m 5.65,4.09 v 5.62 h 2.03 c 1.62,0 3.52,-0.51 3.52,-2.94 0,-2 -1.29,-2.67 -2.84,-2.67 h -2.71 z"
   id="path1180" />
</g><g
         id="logo">
	
	
	
	
	
	
	
	
	
	
<g
   id="Layer_1-2"
   data-name="Layer 1"
   transform="matrix(0.21864173,0,0,0.21864173,-13.847216,71.769978)"><path
     class="cls-2"
     d="m 363.3036,275.27372 c 11.9,-4.74 23.8,-10.18 35.29,-18.24 V 88.523722 h -35.29 z"
     id="path4814"
     style="fill:#e62a34;fill-opacity:1" /><path
     class="cls-2"
     d="m 250.4536,256.97372 c 11.48,8.07 23.4,13.52 35.29,18.3 V 88.523722 h -35.29 z"
     id="path4816"
     style="fill:#e62a34;fill-opacity:1" /><path
     class="cls-2"
     d="m 419.7236,238.16372 c 8.23,-9.27 16.06,-20.79 23.3,-35.43 23.95,-48.45 5.33,-80.39 0.85,-114.209998 h -24.15 z"
     id="path4818"
     style="fill:#e62a34;fill-opacity:1" /><path
     class="cls-2"
     d="m 229.3136,88.523722 h -24.06 c -4.48,33.819998 -23.1,65.759998 0.85,114.209998 7.22,14.59 15,26.08 23.21,35.33 z"
     id="path4820"
     style="fill:#e62a34;fill-opacity:1" /><path
     class="cls-2"
     d="M 342.1636,283.45372 V 88.523722 h -35.31 V 283.41372 c 6,2.36 11.9,4.84 17.69,7.7 5.79,-2.84 11.67,-5.32 17.62,-7.66 z"
     id="path4822"
     style="fill:#e62a34;fill-opacity:1" /><path
     class="cls-3"
     d="m 205.2536,88.523722 h 238.6 c -2.32,-17.540001 -0.85,-35.580001 12.34,-56.700001 l -38.19,-37.3499998 c -25.5,9.18 -67.37,13.36 -93.44,-17.1400002 -26.07,30.5000002 -67.94,26.3200002 -93.45,17.1400002 l -38.2,37.3499998 c 13.19,21.12 14.66,39.16 12.34,56.700001 z"
     id="path4824"
     style="fill:#1a226e;fill-opacity:1" /><path
     class="cls-4"
     d="m 398.6436,24.863721 -1.61,-9.59 c -0.51,-3.1 -1.72,-5.6399998 -2.68,-5.6399998 -0.96,0 -1.74,2.5699998 -1.74,5.7099998 v 2.53 a 5.73,5.73 0 0 1 -5.71,5.71 h -3.05 v 6.94 h 0.54 9.46 a 4.69,4.69 0 0 0 4.77,-5.64"
     id="path4826" /><path
     class="cls-4"
     d="m 375.8536,16.703721 h -15.4 -0.37 -15.77 a 4.9,4.9 0 0 0 -0.54,0 v -1.43 c 0,-3.14 -0.78,-5.6999998 -1.74,-5.6999998 -0.96,0 -2.18,2.5499998 -2.68,5.6999998 l -1.61,9.64 a 4.69,4.69 0 0 0 4.77,5.64 h 9.49 a 8.9,8.9 0 0 0 2.71,-0.42 3.49,3.49 0 0 1 -3.43,2.84 h -13.31 a 3.49,3.49 0 0 1 -3.44,-4.06 l 1.32,-8.13 a 3.48,3.48 0 0 0 -3.44,-4.06 h -66.21 a 3.49,3.49 0 0 0 -3.18,2 l -12.47,19 a 0.86,0.86 0 0 0 0.06,1 l 2.42,2.86 a 0.86,0.86 0 0 0 1.2,0.12 l 8.48,-6.69 v 40.61 a 3.48,3.48 0 0 0 3.49,3.48 h 18.8 a 3.48,3.48 0 0 0 3.49,-3.48 v -14.07 a 3.48,3.48 0 0 1 3.48,-3.48 h 46.95 a 3.48,3.48 0 0 1 3.49,3.48 v 14.13 a 3.48,3.48 0 0 0 3.49,3.48 h 18.8 a 3.48,3.48 0 0 0 3.49,-3.48 v -15.2 h -10 a 5.73,5.73 0 0 1 -5.71,-5.71 v -9.77 a 5.72,5.72 0 0 1 2.29,-4.56 v 11.66 a 5.73,5.73 0 0 0 5.71,5.71 h 15.37 a 5.72,5.72 0 0 0 5.7,-5.71 v -29.69 a 5.72,5.72 0 0 0 -5.7,-5.71"
     id="path4828" /><path
     style="opacity:1;fill:#ffffff;stroke:#856f00;stroke-width:0"
     d="m 229.3136,238.06372 21.14,18.91 V 88.523723 h -21.14 z"
     id="path1" /><path
     style="opacity:1;fill:#f9f9f9;stroke:#856f00;stroke-width:0"
     d="M 285.7436,88.523723 V 275.27372 l 21.11001,8.14 V 88.523723 Z"
     id="path2" /><path
     style="opacity:1;fill:#ffffff;stroke:#856f00;stroke-width:0"
     d="M 342.1636,88.523723 V 283.45372 l 21.14,-8.18 V 88.523723 Z"
     id="path3" /><path
     style="opacity:1;fill:#f9f9f9;stroke:#856f00;stroke-width:0"
     d="M 398.59361,88.523723 V 257.03372 l 21.12999,-18.87 V 88.523723 Z"
     id="path4" /></g><text
   xml:space="preserve"
   style="font-style:normal;font-variant:normal;font-weight:bold;font-stretch:normal;font-size:20px;font-family:Nasalization;-inkscape-font-specification:'Nasalization Bold';text-align:center;text-anchor:middle;fill:#cf0000;fill-opacity:1;stroke-width:0"
   x="415.32419"
   y="-101.0105"
   id="text5222"
   inkscape:export-filename="carbide-logo-docs.svg"
   inkscape:export-xdpi="96"
   inkscape:export-ydpi="96"><tspan
     sodipodi:role="line"
     id="tspan5220"
     x="415.32419"
     y="-101.0105" /><tspan
     sodipodi:role="line"
     id="tspan5224"
     x="415.32419"
     y="-76.010498" /></text></g></g></g><style
     type="text/css"
     id="style1170">
	.st0{display:none;}
	.st1{display:inline;}
	.st2{fill:#2453FF;}
</style></svg>
