<?xml version="1.0" encoding="UTF-8" standalone="no"?>
<!-- Created with Inkscape (http://www.inkscape.org/) -->

<svg
   width="269.16232mm"
   height="58.305832mm"
   viewBox="0 0 269.16232 58.305832"
   version="1.1"
   id="svg11196"
   xml:space="preserve"
   xmlns:inkscape="http://www.inkscape.org/namespaces/inkscape"
   xmlns:sodipodi="http://sodipodi.sourceforge.net/DTD/sodipodi-0.dtd"
   xmlns="http://www.w3.org/2000/svg"
   xmlns:svg="http://www.w3.org/2000/svg"><sodipodi:namedview
     id="namedview11198"
     pagecolor="#ffffff"
     bordercolor="#000000"
     borderopacity="0.25"
     inkscape:showpageshadow="2"
     inkscape:pageopacity="0.0"
     inkscape:pagecheckerboard="0"
     inkscape:deskcolor="#d1d1d1"
     inkscape:document-units="mm"
     showgrid="false" /><defs
     id="defs11193" /><g
     inkscape:label="Layer 1"
     inkscape:groupmode="layer"
     id="layer1"
     transform="translate(-13.880411,-134.16099)"><g
       id="Layer_2_1_"
       transform="matrix(0.26458333,0,0,0.26458333,13.884503,134.16099)">
	<g
   id="Layer_1-2">
		<path
   class="st0"
   d="m 283.51007,2.1709039 h 51.73988 c 24.60357,0 41.06626,11.9399711 41.06626,34.9153701 0,18.8145 -12.84451,30.030837 -25.32721,34.010827 3.61817,3.256356 6.69362,7.417255 8.68361,11.939972 5.24635,10.492702 8.68362,22.251767 19.71905,22.251767 1.62818,0 3.43726,-0.36182 5.06544,-0.90455 l -2.35181,22.07086 c -4.1609,0.90454 -8.3218,1.44727 -12.4827,1.62818 -14.83451,0 -23.33722,-5.78908 -32.02083,-25.68903 -3.61818,-8.864525 -8.86453,-24.603578 -15.73906,-24.603578 h -7.05543 V 127.35969 H 283.69098 V 2.1709039 Z m 31.11629,22.6135821 v 30.754471 h 11.21634 c 8.86452,0 19.35722,-2.71363 19.35722,-16.10087 0,-11.035428 -7.05544,-14.653601 -15.55814,-14.653601 z"
   id="path12110"
   style="fill:#000000;fill-opacity:1;stroke-width:1.80909" />
		<path
   class="st0"
   d="m 418.28702,2.1709039 h 31.4781 L 492.09775,127.5406 h -31.47811 l -7.77907,-23.87994 h -41.97081 l -7.59816,23.87994 h -27.1363 z m 0,78.6952651 h 26.95539 L 436.7397,54.453505 c -1.98999,-7.055437 -3.43726,-14.291784 -4.34181,-21.52813 h -0.72363 c -1.08545,7.236346 -2.53272,14.291784 -4.70363,21.347222 z"
   id="path12112"
   style="fill:#000000;fill-opacity:1;stroke-width:1.80909" />
		<path
   class="st0"
   d="m 493.36411,2.1709039 h 33.28719 l 32.92538,62.2325771 c 2.71363,5.42726 6.51271,14.83451 9.40725,22.251765 h 0.72363 C 569.34575,79.599808 568.4412,69.468924 568.4412,62.232577 V 2.1709039 h 25.50812 V 127.5406 H 561.38576 L 527.19403,65.488933 c -3.43727,-6.69362 -6.51271,-13.38724 -9.04543,-20.442678 h -0.72364 c 0.54273,7.055438 1.44727,15.377236 1.44727,22.251765 V 127.5406 H 493.1832 V 2.1709039 Z"
   id="path12114"
   style="fill:#000000;fill-opacity:1;stroke-width:1.80909" />
		<path
   class="st0"
   d="M 600.46203,64.041664 C 600.46203,18.633591 622.89471,0 657.62917,0 c 36.54355,0 51.37806,20.080861 47.21716,47.217159 l -28.94539,2.532721 c 3.25636,-19.899952 -4.70362,-27.859933 -18.8145,-27.859933 -13.56815,0 -24.60357,10.130885 -24.60357,42.332626 0,34.191735 11.93997,42.875347 25.50812,42.875347 12.84451,0 23.1563,-7.959977 20.9854,-24.422665 l 27.1363,2.71363 c 1.98999,25.508125 -16.28178,44.141715 -49.74988,44.141715 -33.82992,0.36181 -55.71987,-19.71905 -55.90078,-65.488936"
   id="path12116"
   style="fill:#000000;fill-opacity:1;stroke-width:1.80909" />
		<polygon
   class="st0"
   points="549.9,41.2 549.9,70.6 532.8,70.6 532.8,1.2 549.9,1.2 549.9,27.4 571,27.4 571,1.2 588.1,1.2 588.1,70.6 571,70.6 571,41.2 "
   id="polygon12118"
   style="fill:#000000;fill-opacity:1"
   transform="matrix(1.8090866,0,0,1.8090866,-247.63774,0)" />
		<polygon
   class="st0"
   points="639.9,57.8 639.9,70.6 593,70.6 593,1.2 638.9,1.2 638.9,14 610.2,14 610.2,28.9 634.3,28.9 634.3,41.6 610.2,41.6 610.2,57.8 "
   id="polygon12120"
   style="fill:#000000;fill-opacity:1"
   transform="matrix(1.8090866,0,0,1.8090866,-247.63774,0)" />
		<path
   class="st0"
   d="m 915.96673,2.1709039 h 51.55897 c 24.60357,0 41.0663,11.9399711 41.0663,34.9153701 0,18.8145 -12.84453,30.030837 -25.32725,34.010827 3.61817,3.256356 6.69362,7.417255 8.68362,11.939972 5.2463,10.492702 8.68363,22.251767 19.71903,22.251767 1.6282,0 3.4373,-0.36182 5.0655,-0.90455 l -2.3518,22.07086 c -4.1609,0.90454 -8.3218,1.44727 -12.4827,1.62818 -14.83457,0 -23.33728,-5.78908 -32.2018,-25.68903 -3.61817,-8.864525 -8.86452,-24.603578 -15.73905,-24.603578 h -7.05544 v 49.568968 h -30.93538 z m 31.11629,22.6135821 v 30.754471 h 11.21633 c 8.86453,0 19.35723,-2.71363 19.35723,-16.10087 0,-11.035428 -7.05544,-14.653601 -15.55814,-14.653601 z"
   id="path12122"
   style="fill:#000000;fill-opacity:1;stroke-width:1.80909" />
		
		
		
		
		
		
		
		<rect
   x="123.3"
   y="1.3"
   class="st1"
   width="139.5"
   height="17.9"
   id="rect12138"
   style="fill:#ea282f;fill-opacity:1" />
		<rect
   x="123.3"
   y="37.099998"
   class="st1"
   width="139.5"
   height="17.9"
   id="rect12140"
   style="fill:#ea282f;fill-opacity:1" />
		<rect
   y="72.900002"
   class="st1"
   width="262.79999"
   height="17.9"
   id="rect12142"
   x="0"
   style="fill:#ea282f;fill-opacity:1" />
		<rect
   y="108.8"
   class="st1"
   width="262.79999"
   height="17.9"
   id="rect12144"
   x="0"
   style="fill:#ea282f;fill-opacity:1" />
		<path
   class="st2"
   d="m 114.4,13.1 -1.2,-7.4 c -0.4,-2.4 -1.3,-4.4 -2.1,-4.4 -0.8,0 -1.3,2 -1.3,4.4 v 2 c 0,2.4 -2,4.3 -4.4,4.3 H 103 v 5.4 h 7.8 c 2,0.1 3.7,-1.5 3.8,-3.5 -0.1,-0.3 -0.1,-0.6 -0.2,-0.8"
   id="path12146"
   style="fill:#1a226e;fill-opacity:1" />
		<path
   class="st2"
   d="M 96.9,6.8 H 72.5 c -0.1,0 -0.3,0 -0.4,0 V 5.6 c 0,-2.4 -0.6,-4.4 -1.3,-4.4 -0.7,0 -1.7,2 -2.1,4.3 L 67.4,13 c -0.4,2 0.8,3.9 2.8,4.3 0.3,0.1 0.6,0.1 0.9,0.1 h 7.3 c 0.7,0 1.4,-0.1 2.1,-0.4 -0.2,1.3 -1.3,2.2 -2.6,2.2 H 67.6 c -1.5,0 -2.7,-1.2 -2.7,-2.7 0,0 0,0 0,0 0,-0.1 0,-0.3 0,-0.4 l 1,-6.2 c 0.2,-1.5 -0.7,-2.8 -2.2,-3.1 0,0 0,0 0,0 -0.1,0 -0.3,0 -0.4,0 H 12.2 c -1.1,0 -2,0.6 -2.4,1.6 L 0.1,23 c -0.2,0.2 -0.1,0.6 0,0.8 L 2,26 c 0.2,0.3 0.6,0.3 0.9,0.1 L 9.4,21 v 31.3 c 0,1.5 1.2,2.7 2.6,2.7 0,0 0,0 0.1,0 h 14.5 c 1.5,0 2.7,-1.2 2.7,-2.7 V 41.4 c 0,-1.5 1.2,-2.7 2.7,-2.7 0,0 0,0 0,0 h 36.2 c 1.5,0 2.7,1.2 2.7,2.7 0,0 0,0 0,0 v 10.9 c 0,1.5 1.2,2.7 2.6,2.7 0,0 0,0 0.1,0 h 14.5 c 1.5,0 2.7,-1.2 2.7,-2.7 v 0 -11.8 h -7.7 c -2.4,0 -4.4,-2 -4.4,-4.4 0,0 0,0 0,0 v -7.5 c 0,-1.4 0.7,-2.7 1.8,-3.5 v 9 c 0,2.4 2,4.4 4.4,4.4 h 11.8 c 2.4,0 4.4,-2 4.4,-4.4 v -23 C 101.2,8.7 99.3,6.8 96.9,6.8"
   id="path12148"
   style="fill:#1a226e;fill-opacity:1" />
	<text
   xml:space="preserve"
   style="font-style:normal;font-variant:normal;font-weight:bold;font-stretch:normal;font-size:92.7705px;font-family:'Poppins ExtraBold';-inkscape-font-specification:'Poppins ExtraBold,  Bold';text-align:center;text-anchor:middle;fill:#ea282f;fill-opacity:1;stroke:#ffffff;stroke-width:0"
   x="509.09491"
   y="219.53358"
   id="text15513"
   inkscape:export-filename="rgs-logo-simple.svg"
   inkscape:export-xdpi="96"
   inkscape:export-ydpi="96"><tspan
     sodipodi:role="line"
     id="tspan15511"
     x="509.09491"
     y="219.53358"
     style="font-style:normal;font-variant:normal;font-weight:normal;font-stretch:normal;font-family:Poppins;-inkscape-font-specification:Poppins;fill:#000000;fill-opacity:1;stroke-width:0">Government Solutions</tspan></text></g>
</g></g><style
     type="text/css"
     id="style12108">
	.st0{fill:#59595B;}
	.st1{fill:#F15354;}
	.st2{fill:#0575A7;}
</style></svg>
